<svg width="97" height="97" viewBox="0 0 97 97" fill="none" xmlns="http://www.w3.org/2000/svg">
<g id="Group 2">
<circle id="Ellipse 1" cx="48.5" cy="48.5" r="48.5" fill="#9BCB3C"/>
<g id="NRQNl9">
<path id="Vector" d="M57.5549 23.01C57.8749 23.09 58.1949 23.16 58.5049 23.25C61.4849 24.1 63.5149 26.78 63.5149 29.88C63.5149 30.21 63.5249 30.54 63.5149 30.87C63.4949 31.31 63.1649 31.64 62.7649 31.63C62.3549 31.63 62.0549 31.3 62.0249 30.85C61.9849 30.14 62.0249 29.41 61.8749 28.73C61.3349 26.26 59.2749 24.57 56.7249 24.5C55.0149 24.46 53.3149 24.47 51.6049 24.5C50.3149 24.52 49.3849 25.46 49.3849 26.74C49.3749 28.89 49.3649 31.05 49.3849 33.2C49.3949 34.34 50.3049 35.31 51.4049 35.32C54.9149 35.34 58.4249 35.32 62.0249 35.32C62.0249 34.93 62.0249 34.56 62.0249 34.19C62.0249 33.69 62.3249 33.36 62.7449 33.35C63.1849 33.34 63.5049 33.68 63.5149 34.2C63.5149 34.47 63.5149 34.73 63.5149 35C63.4849 35.68 63.6249 36.27 63.9349 36.92C64.5449 38.18 64.5149 39.58 63.9949 40.87C63.5249 42.05 62.4249 42.45 61.2249 42.57C61.0749 42.58 60.9349 42.57 60.8149 42.57C60.6749 43.45 60.6049 44.31 60.4049 45.14C60.0049 46.74 59.1449 48.08 57.8949 49.16C57.7249 49.3 57.6049 49.59 57.5949 49.82C57.5549 50.5 57.5949 51.18 57.5749 51.86C57.5649 52.22 57.6749 52.37 58.0249 52.48C60.8349 53.35 63.6249 54.25 66.4349 55.12C68.4049 55.73 69.7449 56.96 70.0949 59.02C70.2749 60.12 70.1949 61.26 70.1749 62.39C70.1749 62.81 69.8249 63.01 69.4049 62.99C69.0049 62.97 68.7149 62.68 68.7049 62.24C68.6849 61.51 68.7049 60.78 68.7049 60.05C68.7049 58.42 67.8249 57.18 66.2849 56.68C63.2949 55.72 60.3049 54.78 57.3149 53.85C57.1349 53.79 56.8549 53.85 56.7049 53.97C55.5149 54.84 54.3449 55.73 53.1649 56.62C52.6049 57.04 52.3649 57.04 51.7949 56.62C50.6549 55.76 49.5149 54.91 48.3849 54.04C48.1249 53.84 47.9049 53.79 47.5849 53.91C45.5349 54.7 43.4649 55.43 41.4249 56.24C40.9249 56.44 40.4349 56.8 40.0949 57.22C38.3649 59.4 36.6749 61.61 34.9949 63.83C34.8249 64.06 34.7349 64.39 34.7149 64.68C34.6649 65.35 34.8549 66.1 34.3749 66.64C33.9049 67.17 33.9249 67.73 33.9249 68.34C33.9249 68.96 33.6549 69.31 33.1749 69.31C32.7049 69.31 32.4249 68.95 32.4149 68.34C32.4149 68.16 32.4149 67.98 32.4149 67.79H30.1649C30.1649 68.86 30.0449 69.92 30.1949 70.95C30.3549 72.07 31.5049 72.6 32.7249 72.3C33.3549 72.14 33.8849 71.82 34.2949 71.32C35.9349 69.34 37.5749 67.37 39.2049 65.38C39.3149 65.24 39.3649 65.02 39.3649 64.84C39.3849 64.06 39.3649 63.28 39.3649 62.5C39.3649 61.97 39.6549 61.63 40.0949 61.61C40.5449 61.6 40.8449 61.95 40.8549 62.51C40.8549 62.69 40.8549 62.87 40.8549 63.08H62.5249C62.5249 62.93 62.5249 62.77 62.5249 62.61C62.5449 62.1 62.8149 61.8 63.2549 61.79C63.7249 61.79 64.0149 62.09 64.0149 62.63C64.0149 65.63 64.0149 68.63 64.0149 71.63C64.0149 71.88 64.0149 72.12 64.0149 72.4H68.6849C68.6849 72.24 68.6849 72.07 68.6849 71.9C68.6849 69.91 68.6849 67.92 68.6849 65.94C68.6849 65.82 68.6849 65.71 68.6849 65.59C68.7049 65.09 68.9849 64.78 69.4349 64.78C69.8949 64.78 70.1849 65.06 70.1949 65.57C70.2049 66.4 70.1949 67.23 70.1949 68.06C70.1949 69.7 70.1949 71.34 70.1949 72.98C70.1949 73.7 69.9549 73.93 69.2449 73.93C59.6049 73.93 49.9549 73.93 40.3149 73.93C39.6049 73.93 39.3649 73.69 39.3649 72.98C39.3649 71.39 39.3649 69.8 39.3649 68.21C39.3649 68.05 39.3649 67.89 39.3649 67.61C39.1649 67.84 39.0349 67.97 38.9149 68.12C37.6849 69.6 36.4849 71.09 35.2349 72.56C33.6449 74.43 30.8649 74.4 29.3449 72.52C28.8049 71.85 28.5649 71.07 28.5449 70.22C28.5349 69.49 28.5549 68.76 28.5249 68.03C28.5249 67.86 28.3949 67.63 28.2449 67.55C27.4349 67.04 27.0049 66.36 27.0049 65.41C27.0049 63.39 27.0049 61.37 27.0049 59.35C27.0049 57.82 27.5649 57.2 29.0849 56.99C29.1449 56.99 29.2049 56.96 29.3149 56.93C29.3149 56.08 29.3149 55.24 29.3149 54.4C29.3349 53.24 30.2349 52.26 31.3649 52.15C32.5149 52.04 33.6349 52.81 33.8349 53.92C33.9349 54.45 33.8849 55.01 33.8949 55.56C33.8949 55.91 33.8949 56.26 33.8949 56.6C33.8749 57.12 33.9149 57.57 34.2949 58.02C34.5449 58.32 34.6349 58.81 34.6649 59.22C34.7249 59.98 34.6849 60.74 34.6849 61.62C34.8349 61.45 34.9349 61.36 35.0149 61.26C36.3249 59.57 37.6249 57.88 38.9249 56.18C39.4149 55.54 40.0249 55.1 40.7749 54.82C42.8149 54.06 44.8549 53.29 46.9049 52.54C47.2149 52.43 47.3549 52.3 47.3349 51.95C47.3049 51.21 47.3349 50.46 47.3149 49.71C47.3149 49.54 47.2249 49.31 47.0949 49.21C45.1349 47.53 44.1849 45.41 44.2149 42.84C44.2149 42.78 44.2049 42.71 44.2049 42.67C43.6849 42.57 43.1749 42.53 42.6949 42.38C41.3549 41.96 40.6549 40.96 40.6449 39.55C40.6449 39.09 40.5849 38.61 40.6649 38.16C40.7449 37.65 40.8649 37.11 41.1149 36.67C41.3449 36.28 41.4549 35.92 41.4449 35.47C41.4249 34.05 41.4349 32.62 41.4449 31.2C41.4649 28.43 43.7749 26.12 46.5449 26.09C46.9749 26.09 47.4049 26.09 47.8549 26.09C47.9549 25.8 48.0349 25.52 48.1549 25.25C48.6449 24.16 49.4749 23.46 50.6249 23.11C50.7149 23.08 50.8049 23.04 50.8849 23C53.1049 23 55.3249 23 57.5449 23L57.5549 23.01ZM62.5049 70.83C62.2649 70.83 62.0849 70.83 61.9049 70.83C57.9949 70.83 54.0849 70.83 50.1749 70.83C50.0549 70.83 49.9449 70.83 49.8249 70.83C49.2849 70.82 48.9749 70.54 48.9849 70.07C48.9849 69.61 49.3049 69.34 49.8549 69.34C53.8749 69.34 57.9049 69.34 61.9249 69.34C62.1149 69.34 62.3049 69.34 62.4849 69.34V64.67H40.8849V69.34C41.0849 69.34 41.2649 69.34 41.4449 69.34C43.0649 69.34 44.6949 69.34 46.3149 69.34C46.4949 69.34 46.6849 69.36 46.8349 69.43C47.1749 69.6 47.2849 69.92 47.1949 70.27C47.0949 70.65 46.8149 70.83 46.4149 70.83C44.7449 70.83 43.0649 70.83 41.3949 70.83C41.2249 70.83 41.0449 70.83 40.8849 70.83V72.39H62.5049V70.83ZM59.1549 36.86C58.9149 36.86 58.7349 36.86 58.5549 36.86C56.3149 36.86 54.0849 36.85 51.8449 36.86C50.6549 36.86 49.6349 36.51 48.8249 35.62C48.7649 35.55 48.7349 35.44 48.6649 35.31C47.8549 36.32 46.9049 36.78 45.7749 36.87C45.7549 36.96 45.7349 37 45.7349 37.05C45.7349 39.19 45.6849 41.33 45.7549 43.46C45.8349 45.94 47.0749 47.71 49.3549 48.71C50.6849 49.29 52.0749 49.46 53.5249 49.28C56.2949 48.94 59.2549 47.04 59.1849 43.09C59.1549 41.19 59.1849 39.28 59.1849 37.38C59.1849 37.23 59.1749 37.09 59.1649 36.87L59.1549 36.86ZM43.0049 35.34C43.8449 35.34 44.6849 35.34 45.5249 35.34C46.9049 35.34 47.8249 34.43 47.8349 33.04C47.8449 31.45 47.8349 29.86 47.8349 28.27C47.8349 28.06 47.8349 27.85 47.8349 27.59C47.3749 27.59 46.9649 27.57 46.5549 27.59C44.6949 27.7 43.2349 28.91 43.0349 30.75C42.8749 32.24 43.0049 33.75 43.0049 35.33V35.34ZM33.1949 60.06C33.1949 59.82 33.1949 59.65 33.1949 59.49C33.1949 58.72 32.9549 58.49 32.1849 58.49C31.2449 58.49 30.2949 58.49 29.3549 58.49C28.8049 58.49 28.5249 58.76 28.5249 59.31C28.5249 61.35 28.5249 63.38 28.5249 65.42C28.5249 65.92 28.7849 66.22 29.2749 66.23C30.3149 66.26 31.3649 66.26 32.4049 66.23C32.9549 66.22 33.1649 65.95 33.1949 65.41C33.2049 65.17 33.1949 64.93 33.1949 64.66C32.4349 64.66 31.7349 64.66 31.0449 64.66C30.4249 64.66 30.1049 64.39 30.1149 63.88C30.1149 63.4 30.4149 63.16 31.0349 63.16C31.7449 63.16 32.4449 63.16 33.1749 63.16V61.58C32.4649 61.58 31.7649 61.58 31.0749 61.58C30.4449 61.58 30.1249 61.32 30.1149 60.83C30.1149 60.33 30.4149 60.08 31.0549 60.07C31.7449 60.07 32.4349 60.07 33.1949 60.07V60.06ZM56.0749 50.3C53.6549 51.23 51.2949 51.32 48.8849 50.32C48.8849 51.03 48.8849 51.69 48.8849 52.35C48.8849 52.45 48.9549 52.57 49.0349 52.64C50.1749 53.51 51.3149 54.37 52.4649 55.23C53.6149 54.37 54.7249 53.54 55.8249 52.69C55.9449 52.6 56.0549 52.4 56.0549 52.25C56.0849 51.62 56.0649 51 56.0649 50.3H56.0749ZM44.2149 36.92C42.8749 36.66 42.1649 37.23 42.1649 38.53C42.1649 38.86 42.1649 39.19 42.1649 39.52C42.1849 40.71 43.0649 41.33 44.2149 40.97V36.91V36.92ZM60.7549 41C61.9049 41.25 62.8749 40.72 62.7649 39.41C62.7449 39.11 62.7449 38.81 62.7649 38.52C62.8749 37.18 61.9049 36.68 60.7549 36.92V41ZM32.4049 56.94C32.4049 56.06 32.4249 55.2 32.4049 54.34C32.3949 53.94 32.0049 53.62 31.6249 53.65C31.1949 53.68 30.8749 53.93 30.8549 54.35C30.8149 55.2 30.8449 56.06 30.8449 56.94H32.4049Z" fill="white"/>
<path id="Vector_2" d="M37.765 46.15C37.765 46.43 37.765 46.65 37.765 46.86C37.765 48.23 36.865 49.21 35.505 49.23C33.435 49.26 31.365 49.26 29.295 49.23C27.945 49.21 27.025 48.27 27.015 46.92C26.995 43.81 26.995 40.69 27.015 37.58C27.015 36.23 27.925 35.3 29.295 35.28C31.365 35.24 33.435 35.24 35.505 35.28C36.885 35.31 37.765 36.27 37.765 37.64C37.765 38.9 37.775 40.16 37.765 41.42C37.765 41.78 37.855 42.04 38.115 42.29C38.925 43.07 39.705 43.88 40.495 44.68C40.625 44.81 40.745 44.95 40.835 45.1C41.095 45.56 40.935 46 40.405 46.06C39.785 46.14 39.155 46.12 38.525 46.14C38.295 46.14 38.065 46.14 37.765 46.14V46.15ZM38.145 44.61C38.175 44.55 38.205 44.49 38.235 44.43C37.725 43.96 37.225 43.47 36.705 43.01C36.385 42.73 36.255 42.4 36.265 41.96C36.295 40.54 36.275 39.11 36.265 37.69C36.265 37.1 35.995 36.81 35.435 36.81C33.395 36.81 31.365 36.81 29.325 36.81C28.775 36.81 28.515 37.08 28.515 37.64C28.515 40.7 28.515 43.77 28.515 46.83C28.515 47.42 28.775 47.68 29.365 47.68C31.385 47.68 33.405 47.68 35.425 47.68C35.995 47.68 36.255 47.4 36.265 46.81C36.265 46.36 36.265 45.92 36.265 45.47C36.265 44.9 36.535 44.62 37.105 44.6C37.445 44.59 37.785 44.6 38.135 44.6L38.145 44.61Z" fill="white"/>
<path id="Vector_3" d="M52.4653 46.4701C51.1353 46.4701 50.0853 45.5601 49.8753 44.2101C49.7753 43.6001 50.0253 43.1801 50.5053 43.1101C50.9553 43.0401 51.2953 43.3701 51.3853 43.9701C51.5153 44.8401 52.3853 45.2801 53.0753 44.7701C53.3253 44.5901 53.4953 44.2301 53.5753 43.9101C53.7053 43.3901 53.9653 43.0701 54.3953 43.1001C54.8353 43.1301 55.0953 43.4801 55.0853 44.0201C55.0553 45.3701 53.8753 46.4701 52.4753 46.4701H52.4653Z" fill="white"/>
<path id="Vector_4" d="M49.9947 39.2998C49.9947 39.4998 50.0147 39.6998 49.9947 39.8898C49.9547 40.3198 49.6647 40.5498 49.2647 40.5598C48.8647 40.5598 48.5647 40.3298 48.5147 39.9098C48.4747 39.5298 48.4847 39.1498 48.5147 38.7698C48.5347 38.3598 48.8747 38.0698 49.2747 38.0798C49.6747 38.0798 49.9647 38.3698 49.9947 38.7998C50.0047 38.9598 49.9947 39.1298 49.9947 39.2898V39.2998Z" fill="white"/>
<path id="Vector_5" d="M56.4455 39.3001C56.4455 39.4801 56.4655 39.6601 56.4455 39.8401C56.3955 40.2501 56.0655 40.5601 55.6955 40.5601C55.3055 40.5601 54.9855 40.2801 54.9555 39.8501C54.9255 39.5101 54.9355 39.1601 54.9555 38.8101C54.9755 38.3601 55.2355 38.1101 55.6755 38.0801C56.0855 38.0501 56.4155 38.3701 56.4655 38.8101C56.4855 38.9701 56.4655 39.1401 56.4655 39.3001H56.4455Z" fill="white"/>
<path id="Vector_6" d="M31.5449 42.83C32.4749 41.89 33.2749 41.09 34.0749 40.27C34.3749 39.97 34.7049 39.84 35.0949 40.07C35.5149 40.31 35.6149 40.84 35.2549 41.22C34.2349 42.28 33.1849 43.31 32.1349 44.34C31.8049 44.66 31.4049 44.64 31.0749 44.31C30.5549 43.8 30.0349 43.29 29.5349 42.76C29.2349 42.44 29.2549 42.03 29.5349 41.74C29.8249 41.43 30.2649 41.4 30.5949 41.72C30.9349 42.05 31.2149 42.44 31.5549 42.83H31.5449Z" fill="white"/>
</g>
</g>
</svg>
