<svg width="53" height="60" viewBox="0 0 53 60" fill="none" xmlns="http://www.w3.org/2000/svg">
<path d="M43.641 59.9868C41.8941 59.9868 40.1472 59.9868 38.4002 59.9868C37.4808 59.9868 37.1656 59.6847 37.1524 58.7653C37.1393 56.9395 37.1393 55.1007 37.1524 53.2749C37.1524 52.3029 37.4677 52.014 38.4265 51.9877C38.5579 51.9877 38.7023 51.9877 38.8337 51.9877C39.6218 52.0665 40.1078 51.9483 40.4755 51.0289C41.0403 49.6234 42.3538 49.1243 43.838 49.19C45.2566 49.2557 46.3731 49.8599 46.9116 51.239C47.1349 51.8038 47.3844 52.0271 48.0149 52.014C50.1034 51.9746 50.1034 52.014 50.1034 54.0893C50.1034 55.5866 50.1034 57.0971 50.1034 58.5945C50.1034 59.7635 49.8669 59.9868 48.7242 59.9999C47.0298 59.9999 45.3354 59.9999 43.641 59.9999V59.9868ZM38.9125 58.1611H48.3564V53.8003H38.9125V58.1611ZM41.9729 51.8958H45.3223C44.4685 50.556 42.7216 50.5691 41.9729 51.8958Z" fill="#335EA9"/>
<path d="M32.1157 26.5555H40.4034V48.0878H43.7343V16.6193H52.022V49.7815C51.8075 49.7815 51.6043 49.7815 51.4123 49.7815C44.9425 49.7815 38.4839 49.7815 32.0141 49.7815C31.7205 49.7815 31.3705 49.8379 31.1334 49.996C29.2478 51.2041 27.2154 51.509 24.991 51.4751C18.3066 51.3735 11.611 51.4412 4.91534 51.4412C2.38612 51.4412 0.613398 49.6685 0.602107 47.1506C0.602107 46.1457 0.602107 45.1408 0.602107 44.1472C0.602107 41.6067 2.36353 39.8339 4.89275 39.8339C5.0847 39.8339 5.26536 39.8339 5.57022 39.8339C5.33311 39.6081 5.16375 39.45 4.99438 39.292C1.6522 35.9837 0.229507 31.9866 0.681153 27.3121C1.06505 23.3714 2.75873 20.0405 5.28795 17.0484C7.02678 14.9821 8.67529 12.8481 10.3464 10.7366C10.4593 10.5899 10.4932 10.364 10.5609 10.1834C10.5609 10.1495 10.5609 10.1156 10.5609 10.0817C10.9222 8.06063 10.0076 6.38954 9.05919 4.72974C8.79949 4.2668 8.84467 3.91678 9.10436 3.5103C9.827 2.38118 10.8658 1.79404 12.1981 1.64725V0.0100366C12.774 0.0100366 13.316 -0.0125457 13.8579 0.0100366C15.6758 0.0777835 17.4824 0.292316 19.1196 1.16173C20.7455 2.01986 20.5988 1.96341 20.4294 3.65708C20.2939 5.0346 19.7745 6.28792 19.0519 7.4622C18.9277 7.65415 18.8938 7.90255 18.8599 8.12838C18.6002 9.77689 19.1761 11.0754 20.2826 12.3174C22.0214 14.2821 23.6022 16.3935 25.2168 18.4598C26.5943 20.2212 27.5428 22.1972 28.1638 24.3425C28.209 24.5006 28.2655 24.6586 28.3332 24.8845C36.1015 21.6439 41.2616 16.0999 43.8021 8.06063C44.3215 8.20742 44.8296 8.3542 45.4619 8.52357C44.9538 9.81076 44.5473 11.0867 43.9827 12.2948C40.889 18.9114 35.9096 23.5747 29.1462 26.3184C28.751 26.4765 28.6381 26.6346 28.6945 27.0524C28.9655 29.1073 28.8187 31.151 28.2203 33.1609C28.4235 33.1722 28.5929 33.1835 28.8187 33.206C28.8187 33.6238 28.8187 34.0303 28.8187 34.4368C28.8187 36.1869 28.83 37.9257 28.8187 39.6759C28.8187 40.0259 28.9316 40.1953 29.2365 40.342C30.1849 40.7937 31.1221 41.2679 32.127 41.776V26.5555H32.1157ZM26.9895 27.0862C24.8668 27.6959 22.7666 28.0911 20.5762 28.1928C20.531 27.6169 20.4858 27.0975 20.4407 26.5555C20.7455 26.5217 21.0052 26.4991 21.2649 26.4539C22.9247 26.1491 24.5845 25.8442 26.2443 25.5506C26.6282 25.4829 26.696 25.3248 26.5944 24.9409C26.0524 22.9762 25.2055 21.1471 23.9409 19.5437C21.9311 16.9919 19.8987 14.4514 17.855 11.9335C17.7082 11.7528 17.4034 11.6286 17.1662 11.6286C15.5403 11.6061 13.9144 11.6286 12.2885 11.6061C11.9159 11.6061 11.69 11.7303 11.4755 12.0125C9.84957 14.0675 8.23493 16.1564 6.55255 18.1662C4.15883 21.0003 2.56678 24.1618 2.32967 27.9105C2.01352 32.8673 3.93301 36.7402 8.04299 39.5178C8.33656 39.7097 8.74303 39.8227 9.09306 39.8227C12.7062 39.8452 16.3194 39.8339 19.9326 39.8339C20.1132 39.8339 20.3052 39.8339 20.5423 39.8339V33.1947H26.4137C27.1137 31.2188 27.317 29.2203 26.9895 27.0975V27.0862ZM50.3622 48.1104V18.2791H45.4506V48.1104H50.3622ZM38.7436 48.1104V28.2379H33.7981C33.7981 32.9689 33.7981 37.6435 33.8094 42.3293C33.8094 42.4648 33.9562 42.668 34.0917 42.7358C34.6675 43.0519 35.2547 43.3342 35.8418 43.6278C36.6435 44.0343 37.1064 44.6778 37.1177 45.6037C37.1177 46.5522 36.6548 47.1958 35.8305 47.6248C35.5708 47.7603 35.3111 47.8958 34.9159 48.0991H38.7436V48.1104ZM12.2546 41.4937V44.7682H27.125V41.4937H12.2546ZM27.125 49.7589V46.4957H12.2546V49.7589H27.125ZM7.21872 41.4937C6.31543 41.4937 5.45731 41.4486 4.59919 41.4937C3.26683 41.5841 2.30708 42.6116 2.27321 43.9552C2.25063 45.073 2.23934 46.2022 2.27321 47.32C2.30708 48.5394 3.10875 49.533 4.32819 49.6911C5.27665 49.8153 6.2477 49.7137 7.23003 49.7137V41.4825L7.21872 41.4937ZM28.8413 49.2169C28.9655 49.1717 29.0671 49.1379 29.1574 49.0927C31.0882 48.1329 33.019 47.1732 34.9385 46.1909C35.1418 46.0892 35.424 45.8295 35.4127 45.6715C35.3902 45.4569 35.153 45.2085 34.9385 45.0956C33.4029 44.3052 31.856 43.5374 30.3204 42.7696C29.8462 42.5325 29.372 42.3067 28.8526 42.047V49.2282L28.8413 49.2169ZM22.2021 39.8001H27.1363V34.8771H22.2021V39.8001ZM13.9708 1.68113C13.9708 1.82791 13.9708 1.92953 13.9708 2.03115C14.0725 3.44255 14.4677 4.76361 14.987 6.07339C15.1677 6.51374 15.3935 6.67182 15.8678 6.62665C16.3307 6.58149 16.8049 6.63794 17.2679 6.60407C17.4372 6.59278 17.6518 6.46858 17.7421 6.33308C18.3066 5.45237 18.6228 4.48133 18.7922 3.44255C18.8712 2.93445 18.6793 2.7425 18.2728 2.56184C16.9178 1.9747 15.5064 1.74888 13.9708 1.68113ZM8.93498 41.505V49.7363H10.5383V41.505H8.93498ZM12.2546 8.29774V9.90109H17.1775V8.29774H12.2546ZM12.3223 3.18285C11.8594 3.41997 11.3852 3.6345 10.9448 3.91678C10.8432 3.98452 10.7867 4.28938 10.8432 4.42488C11.1368 5.07977 11.4642 5.73465 11.8029 6.36696C11.8594 6.47987 12.0175 6.59278 12.1417 6.60407C12.5369 6.63794 12.9321 6.60407 13.316 6.60407C12.9885 5.48625 12.6724 4.4023 12.311 3.17156L12.3223 3.18285Z" fill="#335EA9"/>
<path d="M43.7339 5.00073V6.59279H28.8408V5.00073H43.7339Z" fill="#335EA9"/>
<path d="M43.7347 1.66992V3.26197H35.4922V1.66992H43.7347Z" fill="#335EA9"/>
<path d="M37.0838 9.92366H28.8525V8.32031H37.0838V9.92366Z" fill="#335EA9"/>
<path d="M33.7759 1.68115V3.2732H28.8643V1.68115H33.7759Z" fill="#335EA9"/>
<path d="M28.8525 11.6287H30.4446V13.232H28.8525V11.6287Z" fill="#335EA9"/>
<path d="M32.1611 13.2432V11.6399H33.7758V13.2432H32.1611Z" fill="#335EA9"/>
<path d="M35.4805 13.2207V11.6287H37.0951V13.2207H35.4805Z" fill="#335EA9"/>
<path d="M18.8596 33.1946H15.5513V34.8093H13.9028V33.3188C13.1462 32.8446 12.4236 32.5059 11.8365 31.9978C10.9558 31.2412 10.5606 30.2138 10.5606 29.0508C10.5606 28.2378 10.5606 27.4248 10.5606 26.578H12.2204C12.2204 27.3006 12.2204 28.0233 12.2204 28.7459C12.2204 30.496 13.2479 31.5235 14.9867 31.5235C15.7093 31.5235 16.432 31.5235 17.1772 31.5235C17.1772 30.5638 17.2562 29.6492 17.1546 28.7459C17.0191 27.4587 16.0142 26.5441 14.7383 26.5554C12.5365 26.578 10.4364 24.6698 10.5493 22.1632C10.6057 20.8873 10.5493 19.6001 10.5493 18.2677H13.8576V16.6079H15.5061V18.279C17.324 18.7758 18.5095 19.8936 18.7918 21.7228C18.9499 22.7277 18.8144 23.7891 18.8144 24.8392H17.1885C17.1885 24.0827 17.2449 23.3036 17.1659 22.5358C17.1094 21.9938 16.9514 21.4067 16.6804 20.9324C16.2965 20.2437 15.5851 19.9275 14.806 19.8936C13.9592 19.8598 13.1124 19.8936 12.1526 19.8936C12.2091 20.9663 12.1639 22.0164 12.3333 23.0439C12.5027 24.0939 13.5414 24.8617 14.6931 24.8505C16.9627 24.8279 18.9612 26.8038 18.8483 29.2201C18.7918 30.5073 18.8483 31.8058 18.8483 33.172L18.8596 33.1946Z" fill="#335EA9"/>
</svg>
