<svg width="52" height="53" viewBox="0 0 52 53" fill="none" xmlns="http://www.w3.org/2000/svg">
<path d="M50.7559 18.6278C53.7259 27.0092 51.6884 39.73 41.2657 47.3185C31.1588 54.6793 17.5129 53.8386 8.29074 45.3029C-0.714784 36.9729 -2.63117 23.2682 3.76045 12.7758C10.4641 1.7695 23.1996 -1.83565 33.2698 1.31426C32.631 1.91267 32.0877 2.48171 31.4709 2.96632C31.2947 3.10582 30.9055 3.03607 30.6302 2.981C17.9681 0.510263 6.24587 8.43278 3.10697 20.1844C-0.567934 33.9515 8.76433 47.8691 22.9353 49.7525C35.7332 51.4523 47.6059 42.4541 49.4122 29.6855C49.8013 26.9358 49.7977 24.186 49.1589 21.4803C48.9386 20.5515 49.1001 19.9494 49.8491 19.4281C50.1648 19.2078 50.4254 18.9178 50.7485 18.6241L50.7559 18.6278Z" fill="#335EA9"/>
<path d="M43.7736 0C43.5644 3.07649 43.3735 5.8703 43.1716 8.82197C46.0571 8.63106 48.8803 8.44383 51.9421 8.23824C51.5713 8.64575 51.3474 8.91375 51.1014 9.15972C47.9956 12.2766 44.9044 15.4045 41.7618 18.481C41.3543 18.8811 40.6898 19.1601 40.1134 19.2262C38.4504 19.4208 36.7653 19.4318 35.0985 19.6154C34.5882 19.6741 34.0192 19.9641 33.6447 20.3239C31.9706 21.9246 30.3369 23.5693 28.7326 25.2397C28.4169 25.5701 28.1856 26.0584 28.0938 26.5136C27.8699 27.6077 27.1099 28.3456 26.0379 28.3603C25.0063 28.3749 24.1472 27.6811 23.9527 26.6788C23.7471 25.5995 24.2831 24.7147 25.2927 24.2595C25.8507 24.0062 26.4087 23.6721 26.8456 23.2462C28.5344 21.6125 30.1974 19.9495 31.8164 18.246C32.1469 17.8972 32.3671 17.3392 32.4222 16.8509C32.6021 15.2172 32.7196 13.5762 32.782 11.9315C32.8113 11.1716 33.0867 10.6319 33.6227 10.1069C36.9452 6.83216 40.2382 3.52805 43.7736 0ZM45.7855 11.2413L45.6643 11.021C44.027 11.1165 42.3896 11.2119 40.6861 11.3147C40.7889 9.55254 40.8844 7.94454 40.9762 6.34021C38.935 8.06936 37.1397 9.87194 35.3555 11.6819C35.2454 11.7957 35.1242 11.9572 35.1132 12.104C34.9847 13.7928 34.8782 15.4852 34.7571 17.2805C35.719 17.2071 36.556 17.0345 37.3747 17.1006C39.3094 17.2548 40.7412 16.5242 41.9858 15.052C43.1422 13.6863 44.5116 12.5042 45.7891 11.2413H45.7855Z" fill="#335EA9"/>
<path d="M29.0556 15.2908C20.5713 13.4332 14.8149 19.8799 14.7378 26.0255C14.657 32.4208 19.9436 37.7404 26.203 37.5312C28.6554 37.4504 30.8802 36.7125 32.8333 35.2073C34.812 33.68 36.1374 31.7049 36.8422 29.3149C37.5361 26.9617 37.3415 24.6158 36.5559 22.1817C37.2791 22.134 37.8849 22.0092 38.4576 22.0973C38.7182 22.1377 39.0413 22.5636 39.1257 22.8719C41.1633 30.3062 36.2034 38.1957 28.6187 39.6164C21.4084 40.9674 14.4734 36.4849 12.7737 29.3737C11.0849 22.3139 15.3398 15.0485 22.418 13.1982C24.1251 12.7504 25.9938 12.9229 27.7853 12.7944C28.6627 12.732 28.9821 13.1726 28.9748 13.9876C28.9711 14.3877 29.0262 14.7842 29.0592 15.2945L29.0556 15.2908Z" fill="#335EA9"/>
</svg>
