<svg width="68" height="61" viewBox="0 0 68 61" fill="none" xmlns="http://www.w3.org/2000/svg">
<path d="M0.699219 59.7005C1.13678 58.2419 1.59519 56.7834 2.0015 55.3144C3.10583 51.4076 4.19974 47.4903 5.30407 43.5835C6.12711 40.6455 8.03365 38.7911 10.9716 37.9785C14.7013 36.9471 18.4206 35.9052 22.1399 34.8426C22.4421 34.7592 22.7546 34.5196 22.9317 34.2696C23.6922 33.1861 24.4007 32.0713 25.1404 30.9774C25.2758 30.7795 25.3904 30.5294 25.5884 30.4357C26.1093 30.1752 26.0051 29.8418 25.8384 29.4251C25.3904 28.352 24.9737 27.2581 24.5257 26.185C24.4528 26.0079 24.3173 25.7891 24.1506 25.7162C22.1816 24.789 21.5044 23.0283 21.1398 21.0697C20.9418 19.9654 20.9314 18.8714 21.4315 17.8296C21.5669 17.5379 21.744 17.1941 21.9941 17.0587C22.5358 16.767 22.5254 16.3502 22.4316 15.871C22.067 13.9332 22.0462 11.9954 22.3066 10.0472C22.8796 5.74448 25.0987 2.63985 29.1722 1.0146C33.4437 -0.693987 37.5485 -0.246004 41.3303 2.36897C43.9869 4.20258 45.2996 6.86964 45.7268 10.0159C46.0081 12.0996 45.9143 14.1624 45.5809 16.2356C45.5497 16.4023 45.5601 16.6836 45.6643 16.7565C46.8624 17.5483 47.0499 18.7673 46.9874 20.0279C46.9145 21.8302 46.4665 23.5388 45.133 24.8828C44.9558 25.0703 44.7475 25.2682 44.5183 25.3516C43.7786 25.6224 43.5598 26.1955 43.3723 26.9039C43.0806 28.0291 42.643 29.1126 42.2992 30.144C43.1952 31.4775 44.1015 32.811 44.9767 34.1758C45.2371 34.5821 45.5497 34.8113 46.0289 34.9468C49.6961 35.9469 53.3529 36.9887 57.0201 37.9993C59.9581 38.8119 61.875 40.6351 62.7085 43.5835C64.2087 48.928 65.7089 54.2726 67.2092 59.6275C67.4592 60.5235 67.2092 60.8465 66.3132 60.8673C66.209 60.8673 66.0944 60.8673 65.9902 60.8673C44.6745 60.8673 23.3484 60.8673 2.03275 60.8569C1.58477 60.8569 1.1472 60.6381 0.699219 60.5131C0.699219 60.2526 0.699219 59.9922 0.699219 59.7317L0.699219 59.7005ZM22.64 36.1449C18.7019 37.2492 14.8472 38.3014 11.0133 39.4058C8.77334 40.0413 7.32521 41.5207 6.6897 43.7606C5.62704 47.4799 4.59564 51.2096 3.55381 54.9289C3.13708 56.4187 2.70994 57.9085 2.29321 59.4088H10.5757C10.5757 59.1275 10.5757 58.8983 10.5757 58.6586C10.5757 55.3873 10.5757 52.1056 10.5757 48.8343C10.5757 48.6155 10.5132 48.355 10.6174 48.1987C10.7632 47.9695 11.0341 47.6883 11.2425 47.6883C11.4612 47.6883 11.7217 47.98 11.8676 48.2092C11.9717 48.3654 11.8988 48.6259 11.8988 48.8447C11.8988 52.1368 11.8988 55.4394 11.8988 58.7316V59.4192H31.235C28.3596 51.6368 25.5154 43.9169 22.6504 36.1553L22.64 36.1449ZM42.0596 10.3493C36.6629 11.5891 31.3496 11.5891 25.9947 10.3493C25.9217 10.5785 25.8592 10.7765 25.7967 10.9744C25.2341 12.9747 24.682 14.9646 24.0986 16.9545C24.0048 17.267 23.7548 17.6838 23.4943 17.7567C22.7546 17.9755 22.4212 18.486 22.4525 19.1423C22.5046 20.1946 22.6087 21.2572 22.8692 22.2678C23.1297 23.2367 23.7027 24.091 24.7341 24.4556C25.3696 24.6848 25.6613 25.112 25.8384 25.7579C26.4114 27.8728 27.3803 29.8002 28.943 31.3733C30.6933 33.134 32.6832 34.3633 35.3086 33.7799C37.3818 33.3215 38.9862 32.0922 40.3093 30.4878C41.4553 29.0917 41.9137 27.3936 42.2575 25.6745C42.3721 25.0703 42.6326 24.6952 43.2056 24.4973C44.0286 24.2056 44.5495 23.5909 44.935 22.8304C45.5184 21.6531 45.706 20.4029 45.5914 19.1111C45.5393 18.5901 45.4247 18.0276 44.7996 17.8921C44.2266 17.7775 44.039 17.4233 43.9036 16.9337C43.3098 14.7458 42.6847 12.5684 42.0596 10.3493ZM57.4681 59.4192H65.7194C65.6881 59.2733 65.6777 59.1691 65.6464 59.065C64.1983 53.9079 62.7502 48.7405 61.2916 43.5835C60.9582 42.4062 60.3019 41.4269 59.3747 40.6247C58.3745 39.76 57.1452 39.4162 55.9158 39.0828C52.4153 38.1139 48.9252 37.1346 45.3934 36.1449C42.5284 43.9064 39.6738 51.6472 36.8088 59.3983H56.1346C56.1346 59.1066 56.1346 58.867 56.1346 58.6274C56.1346 55.2623 56.1346 51.9076 56.1346 48.5425C56.1346 48.0737 56.27 47.6778 56.7701 47.657C57.3223 47.6362 57.489 48.0425 57.4785 48.5425C57.4785 48.7197 57.4785 48.8863 57.4785 49.0635C57.4785 52.2723 57.4785 55.4811 57.4785 58.6899C57.4785 58.9191 57.4785 59.1587 57.4785 59.4192H57.4681ZM23.6506 13.5581C24.0569 12.0996 24.4215 10.8077 24.7862 9.52629C24.9737 8.86994 25.2654 8.66158 25.8697 8.84911C28.4013 9.63047 30.9954 9.88051 33.6208 9.90135C36.4858 9.92218 39.33 9.72424 42.0908 8.85953C42.7576 8.65116 43.0389 8.84911 43.2577 9.5888C43.6223 10.8598 43.9765 12.1204 44.3933 13.5581C44.8517 9.91177 43.7682 5.56737 40.2468 3.2441C36.4962 0.774983 31.2455 0.84791 27.5157 3.44205C24.1715 5.76531 23.1713 10.1931 23.6506 13.5581ZM34.0063 37.593C33.5896 37.593 33.1832 37.6242 32.7665 37.593C32.3602 37.5513 32.1831 37.7493 31.9539 38.0618C31.3392 38.9161 31.235 39.7496 31.7039 40.6976C31.9643 41.2394 32.131 41.8332 32.2769 42.4166C32.381 42.8229 32.4644 43.2709 32.4123 43.6877C32.0685 46.386 31.7247 49.0947 31.2871 51.7826C30.9954 53.585 30.8496 55.3352 31.7768 57.0021C31.8706 57.1688 31.9122 57.3668 31.9852 57.5439C32.2352 58.169 32.3081 59.0337 32.7665 59.3358C33.2562 59.6588 34.1001 59.4192 34.7877 59.4608C35.1731 59.4817 35.3607 59.3567 35.4961 58.9816C35.9649 57.6585 36.4754 56.3458 36.9546 55.0331C37.0276 54.8247 37.0588 54.5643 37.0276 54.3455C36.6004 51.1679 36.1837 48.0008 35.7253 44.8337C35.5586 43.6981 35.5273 42.6146 35.9962 41.5311C36.2462 40.9581 36.4337 40.3538 36.59 39.7496C36.6525 39.5099 36.59 39.2182 36.5171 38.9682C36.1837 37.8326 35.444 37.343 34.2563 37.593C34.173 37.6138 34.0792 37.593 33.9959 37.593H34.0063ZM42.0596 32.2172C40.7365 33.4674 39.4133 34.6863 38.1423 35.9365C37.0276 37.0304 37.0276 37.0617 37.7985 38.4056C38.4132 39.4787 39.1008 40.4997 39.7884 41.6144C41.2157 39.5516 42.5597 37.593 43.9036 35.6239C43.9869 35.4885 44.0495 35.2281 43.9765 35.1239C43.3306 34.1029 42.6534 33.1132 42.0596 32.2172ZM25.9113 32.2797C25.3175 33.1757 24.609 34.2383 23.8902 35.3218C25.3279 37.4055 26.7552 39.4787 28.2554 41.6561C29.1306 40.1663 29.9536 38.8015 30.7454 37.4159C30.8287 37.2596 30.7871 36.895 30.662 36.7699C29.1097 35.2697 27.5261 33.7903 25.9113 32.2797ZM38.059 51.668C38.059 51.668 38.1527 51.668 38.2048 51.668C39.5488 48.0112 40.9032 44.3544 42.2471 40.708C41.6428 41.3436 41.1636 42.0312 40.6844 42.7188C39.9551 43.771 39.5905 43.771 38.9029 42.7188C38.5174 42.1249 38.1319 41.5415 37.7464 40.9581C37.6839 40.9581 37.6214 40.9581 37.5485 40.9581C37.361 41.854 36.9442 42.7604 37.0172 43.6356C37.2672 46.3235 37.6943 48.9905 38.059 51.668ZM29.8286 51.6889C29.8286 51.6889 29.9119 51.6889 29.9536 51.6889C30.2661 49.4906 30.5162 47.2715 30.9017 45.0837C31.1621 43.6251 30.9954 42.2916 30.287 40.9372C29.8598 41.5936 29.4639 42.2083 29.068 42.8229C28.4742 43.7293 28.0366 43.7397 27.422 42.8646C26.9115 42.1353 26.4114 41.4061 25.9113 40.6768C25.8697 40.6976 25.828 40.7289 25.7863 40.7497C27.1407 44.3961 28.4846 48.0529 29.839 51.6993L29.8286 51.6889ZM37.5693 34.8322C37.5068 34.7384 37.4443 34.655 37.3714 34.5613C34.9439 35.6135 32.5686 35.5614 30.1724 34.3425C30.6725 34.9676 31.2559 35.4885 31.8497 35.9886C31.9851 36.1032 32.1935 36.1865 32.3602 36.1865C33.4437 36.2074 34.5272 36.1969 35.6003 36.1865C35.7565 36.1865 35.9545 36.1344 36.0691 36.0407C36.5796 35.6448 37.0588 35.2281 37.5589 34.8217L37.5693 34.8322Z" fill="#335EA9"/>
</svg>
