<svg width="97" height="97" viewBox="0 0 97 97" fill="none" xmlns="http://www.w3.org/2000/svg">
<g id="Group 2">
<circle id="Ellipse 1" cx="48.5" cy="48.5" r="48.5" fill="#9BCB3C"/>
<g id="QZxgJ3">
<path id="Vector" d="M49.4795 19C50.8295 19.38 51.6695 20.31 52.2695 21.54C52.6595 22.34 53.1295 23.11 53.5795 23.89C54.1195 24.82 54.9295 25.1 55.9095 24.67C57.0295 24.18 58.1295 23.62 59.2495 23.15C61.2995 22.29 63.6295 23.43 64.0195 25.56C64.1795 26.45 63.9995 27.42 63.9295 28.34C63.8895 29 63.7695 29.65 63.7195 30.31C63.6195 31.44 64.1495 32.11 65.2695 32.33C66.4095 32.56 67.5595 32.76 68.6995 33.03C71.3895 33.65 72.3795 36.71 70.5595 38.79C69.7995 39.65 69.0095 40.48 68.2295 41.33C67.3895 42.25 67.3795 43.1 68.2295 44.01C68.9595 44.8 69.6695 45.6 70.4095 46.37C71.3995 47.42 71.7495 48.64 71.2995 50.02C70.8495 51.42 69.7895 52.14 68.3895 52.41C67.3395 52.62 66.2895 52.81 65.2395 53.02C64.1595 53.23 63.6295 53.92 63.7395 55.02C63.8595 56.28 64.0495 57.53 64.0995 58.79C64.1195 59.39 63.9395 60.01 63.7495 60.59C63.6395 60.91 63.6095 61.14 63.7695 61.44C65.4495 64.66 67.1295 67.89 68.7895 71.13C69.5095 72.52 68.9295 73.98 67.4995 74.33C67.0795 74.43 66.5695 74.36 66.1395 74.23C65.5295 74.05 64.9595 73.74 64.3695 73.49C62.7295 72.8 61.2495 73.53 60.8295 75.28C60.6895 75.86 60.6095 76.46 60.4695 77.05C60.2195 78.11 59.5595 78.76 58.6595 78.87C57.6395 79 56.8795 78.57 56.3495 77.55C54.4295 73.86 52.5195 70.16 50.5995 66.46C50.5295 66.32 50.4495 66.19 50.3495 66.02C49.3195 66.45 48.2795 66.51 47.1995 65.99C47.0895 66.21 46.9795 66.4 46.8795 66.6C46.1095 68.08 45.3595 69.58 44.5495 71.04C44.3995 71.32 43.9395 71.58 43.6395 71.57C43.3695 71.56 43.0295 71.19 42.8995 70.9C42.8095 70.7 42.9495 70.34 43.0795 70.09C43.9095 68.46 44.7495 66.84 45.6095 65.22C45.7795 64.9 45.8195 64.64 45.6095 64.31C45.0595 63.39 44.5495 62.45 44.0195 61.52C43.4395 60.51 42.6195 60.24 41.5495 60.72C40.5395 61.17 39.5295 61.64 38.5295 62.11C37.6495 62.52 36.7395 62.64 35.8095 62.31C35.4895 62.2 35.3595 62.28 35.2195 62.55C33.6195 65.66 31.9995 68.77 30.4095 71.89C30.3195 72.06 30.3795 72.31 30.3695 72.53C30.5695 72.53 30.7895 72.57 30.9695 72.5C31.8095 72.19 32.5995 71.73 33.4595 71.54C35.7995 71.01 37.9795 72.52 38.4695 74.93C38.5795 75.48 38.6795 76.04 38.8295 76.58C38.8795 76.77 39.0395 76.92 39.1395 77.09C39.3095 76.95 39.5395 76.85 39.6295 76.68C40.1895 75.66 40.7195 74.62 41.2495 73.58C41.4395 73.2 41.7195 72.95 42.1595 72.97C42.8095 73 43.1895 73.67 42.8795 74.3C42.2895 75.48 41.6895 76.66 41.0395 77.82C40.5695 78.66 39.7995 79 38.8595 78.85C37.9795 78.71 37.3695 78.19 37.1495 77.3C36.9795 76.66 36.8595 76.01 36.7295 75.36C36.3695 73.56 34.8695 72.77 33.1595 73.48C32.5995 73.71 32.0595 73.97 31.4995 74.19C30.5495 74.58 29.6895 74.41 29.0395 73.73C28.3895 73.05 28.2295 72.17 28.6995 71.25C30.3495 68.01 32.0295 64.78 33.7195 61.56C33.9295 61.16 33.9695 60.86 33.7395 60.45C33.2995 59.67 33.3995 58.79 33.4895 57.94C33.5995 56.97 33.7295 56.01 33.8195 55.04C33.9295 53.88 33.3995 53.23 32.2395 52.99C31.1195 52.77 29.9895 52.55 28.8695 52.3C26.1495 51.69 25.1595 48.6 27.0095 46.51C27.7695 45.65 28.5695 44.82 29.3395 43.97C30.1495 43.08 30.1495 42.23 29.3395 41.33C28.5895 40.51 27.8295 39.7 27.0895 38.87C25.1495 36.74 26.0695 33.68 28.8695 32.99C29.9795 32.72 31.1095 32.52 32.2395 32.3C33.0595 32.14 33.6195 31.74 33.8395 30.89C33.9995 30.28 34.4595 30 34.9595 30.15C35.4895 30.31 35.7095 30.72 35.5595 31.36C35.2295 32.68 34.4095 33.57 33.0995 33.92C31.9895 34.21 30.8595 34.39 29.7395 34.63C29.5695 34.67 29.3995 34.7 29.2295 34.74C27.9095 35.07 27.4295 36.49 28.3095 37.52C29.0395 38.38 29.8295 39.19 30.5995 40.02C32.1395 41.68 32.1495 43.57 30.6295 45.23C29.9395 45.98 29.2595 46.72 28.5595 47.46C28.0395 48.01 27.6995 48.61 27.9595 49.41C28.2195 50.2 28.8395 50.5 29.5895 50.64C30.6395 50.84 31.6895 51.04 32.7395 51.25C34.7295 51.65 35.8895 53.3 35.6195 55.32C35.4695 56.42 35.3495 57.52 35.2395 58.63C35.0895 60.18 36.3495 61.1 37.7695 60.48C38.8195 60.02 39.8495 59.51 40.8995 59.05C42.7295 58.23 44.5495 58.83 45.5595 60.58C46.1195 61.56 46.6795 62.54 47.2195 63.53C47.5695 64.17 48.0795 64.55 48.7995 64.55C49.5195 64.55 50.0395 64.16 50.3795 63.53C50.9295 62.52 51.5095 61.53 52.0595 60.53C52.5595 59.63 53.3095 59.05 54.2995 58.79C54.9995 58.6 55.5195 58.86 55.6495 59.43C55.7695 59.94 55.4295 60.26 54.7795 60.53C54.3395 60.71 53.8795 61.03 53.6195 61.42C52.9895 62.38 52.4595 63.4 51.9295 64.42C51.8395 64.6 51.8395 64.91 51.9295 65.09C53.9095 68.95 55.8995 72.8 57.9095 76.65C57.9995 76.83 58.2295 76.94 58.3895 77.08C58.5095 76.9 58.6795 76.73 58.7295 76.53C58.8995 75.87 59.0095 75.2 59.1895 74.54C59.8195 72.12 62.3395 70.81 64.6895 71.69C65.3395 71.93 65.9695 72.25 66.6295 72.5C66.7995 72.57 67.0295 72.5 67.2295 72.5C67.2095 72.3 67.2495 72.07 67.1695 71.9C65.5395 68.72 63.8895 65.54 62.2395 62.36C62.2095 62.31 62.1695 62.27 62.0895 62.18C60.4695 62.96 59.0895 62.13 57.6895 61.45C57.2095 61.22 57.0495 60.7 57.2695 60.26C57.4695 59.85 57.9495 59.66 58.4095 59.84C58.8795 60.02 59.3295 60.26 59.7895 60.47C61.2095 61.1 62.4895 60.19 62.3395 58.65C62.2295 57.53 62.0995 56.41 61.9495 55.29C61.6795 53.31 62.8995 51.62 64.8795 51.25C66.0295 51.04 67.1695 50.81 68.3095 50.55C69.6695 50.25 70.1595 48.81 69.2595 47.75C68.5195 46.87 67.7095 46.05 66.9295 45.21C65.4495 43.6 65.4495 41.68 66.9295 40.09C67.6595 39.3 68.3995 38.52 69.1095 37.73C70.2195 36.49 69.7695 35.06 68.1395 34.7C67.0595 34.46 65.9695 34.26 64.8795 34.05C62.8495 33.66 61.6595 31.94 61.9595 29.89C62.1195 28.81 62.2395 27.73 62.3495 26.64C62.4995 25.1 61.2395 24.19 59.8095 24.82C58.7595 25.28 57.7295 25.79 56.6795 26.25C54.8195 27.06 53.0395 26.47 52.0295 24.71C51.4695 23.73 50.9295 22.74 50.3695 21.76C49.5695 20.38 48.0095 20.39 47.2195 21.78C46.6795 22.73 46.1595 23.68 45.6195 24.63C44.5695 26.48 42.7895 27.08 40.8395 26.22C39.8095 25.77 38.7995 25.26 37.7595 24.82C36.3295 24.2 35.0895 25.12 35.2395 26.67C35.2695 26.98 35.3495 27.29 35.3295 27.6C35.2995 28.07 34.9895 28.35 34.5495 28.41C34.1195 28.47 33.7395 28.25 33.6295 27.84C33.0595 25.62 33.7595 23.55 36.1495 22.91C36.8995 22.71 37.6595 22.81 38.3695 23.13C39.4095 23.61 40.4495 24.1 41.4995 24.57C42.6695 25.09 43.4595 24.82 44.0895 23.71C44.5995 22.81 45.1295 21.93 45.5995 21.01C46.1395 19.95 47.0095 19.34 48.0995 18.98H49.4995L49.4795 19Z" fill="white"/>
<path id="Vector_2" d="M43.2897 54.0401C42.5997 54.5901 41.7797 54.5901 40.9597 54.5801C40.0397 54.5701 39.1297 54.6001 38.2097 54.5601C36.8897 54.5101 35.9197 53.5001 35.9097 52.1701C35.9097 48.1801 35.8997 44.1801 35.9097 40.1901C35.9097 38.8501 36.9397 37.8501 38.2897 37.8201C39.3197 37.8001 40.3597 37.8301 41.3897 37.8101C42.1597 37.7901 42.8497 37.9701 43.4797 38.5201C44.4897 37.4801 45.7897 37.5501 47.0797 37.6101C47.5897 37.6301 47.9297 37.4801 48.2597 37.0701C49.7597 35.2101 51.2997 33.3601 52.8397 31.5301C54.1397 29.9801 56.3297 29.7901 57.9097 31.0701C59.3597 32.2401 59.5697 34.4501 58.3797 36.0001C57.9797 36.5201 57.5497 37.0201 57.0897 37.6001C57.3597 37.6601 57.5697 37.7001 57.7697 37.7501C59.9997 38.2901 61.6297 40.3201 61.6497 42.6401C61.6697 44.8601 61.6697 47.0801 61.6497 49.3001C61.6197 52.4601 59.0097 55.1001 55.8397 55.1301C52.4897 55.1601 49.1397 55.1301 45.7897 55.1301C44.8197 55.1301 44.0297 54.7201 43.3097 54.0401H43.2897ZM44.3497 46.3301C44.3497 48.0801 44.3497 49.8401 44.3497 51.5901C44.3497 52.6501 44.9097 53.2301 45.9697 53.2301C49.1897 53.2401 52.3997 53.2801 55.6197 53.2201C58.1197 53.1801 59.7697 51.4001 59.7697 48.9001C59.7697 46.9301 59.7697 44.9601 59.7697 42.9901C59.7697 40.9601 58.5797 39.6501 56.5597 39.4901C55.8497 39.4301 55.3297 39.1401 55.0297 38.5001C54.7097 37.8201 54.9097 37.2201 55.3697 36.6601C55.8997 36.0301 56.4397 35.4201 56.9197 34.7601C57.6897 33.7201 57.0897 32.3101 55.8097 32.1401C55.1097 32.0501 54.5797 32.3801 54.1497 32.9201C52.5497 34.8601 50.9397 36.7901 49.3397 38.7301C48.9097 39.2501 48.3997 39.5201 47.7197 39.4901C47.1797 39.4601 46.6297 39.4901 46.0797 39.4901C44.8797 39.5001 44.3397 40.0401 44.3297 41.2501C44.3297 42.9501 44.3297 44.6401 44.3297 46.3401L44.3497 46.3301ZM37.7897 46.1301C37.7897 48.0401 37.7897 49.9401 37.7897 51.8501C37.7897 52.5201 37.9497 52.6801 38.6097 52.6801C39.5397 52.6801 40.4797 52.6801 41.4097 52.6801C42.1797 52.6801 42.4697 52.4001 42.4697 51.6301C42.4697 48.0101 42.4697 44.3901 42.4697 40.7701C42.4697 39.9801 42.1797 39.7001 41.3697 39.6901C40.4697 39.6901 39.5797 39.6901 38.6797 39.6901C37.9497 39.6901 37.7897 39.8501 37.7897 40.5701C37.7897 42.4201 37.7897 44.2701 37.7897 46.1201V46.1301Z" fill="white"/>
</g>
</g>
</svg>
