<svg width="59" height="60" viewBox="0 0 59 60" fill="none" xmlns="http://www.w3.org/2000/svg">
<path d="M45.6079 59.9883C44.0607 59.9883 42.5135 59.9883 40.9664 59.9883C40.1521 59.9883 39.8729 59.7208 39.8613 58.9065C39.8496 57.2895 39.8496 55.6609 39.8613 54.044C39.8613 53.1831 40.1405 52.9272 40.9896 52.904C41.106 52.904 41.2339 52.904 41.3503 52.904C42.0482 52.9737 42.4786 52.8691 42.8044 52.0548C43.3046 50.81 44.4679 50.368 45.7824 50.4262C47.0387 50.4843 48.0275 51.0194 48.5045 52.2409C48.7022 52.7411 48.9232 52.9389 49.4816 52.9272C51.3312 52.8923 51.3312 52.9272 51.3312 54.7652C51.3312 56.0913 51.3312 57.4291 51.3312 58.7553C51.3312 59.7906 51.1218 59.9883 50.1098 60C48.6092 60 47.1085 60 45.6079 60V59.9883ZM41.4201 58.3714H49.7841V54.5093H41.4201V58.3714ZM44.1305 52.8225H47.0969C46.3408 51.636 44.7936 51.6476 44.1305 52.8225Z" fill="#335EA9"/>
<path d="M51.2563 28.1029C52.3437 28.3861 53.4538 28.6466 54.5412 28.9637C56.9992 29.666 58.6416 31.8522 58.653 34.3895C58.653 36.5077 58.653 38.6146 58.653 40.7328C58.653 41.571 58.3471 41.8768 57.4976 41.8768C53.9295 41.8768 50.3614 41.8768 46.7933 41.8768C46.5895 41.8768 46.3856 41.8768 46.0684 41.8768C46.2949 42.1147 46.4195 42.2619 46.5668 42.4092C49.6138 45.4562 52.6608 48.4919 55.6966 51.5389C57.6222 53.4872 56.9312 56.6362 54.3939 57.4971C52.9214 57.9955 51.6527 57.6104 50.5766 56.5229C47.6429 53.5892 44.7091 50.6554 41.7754 47.7217C41.5262 47.4725 41.311 47.2006 41.0957 46.9627C39.9517 47.6764 39.8497 47.665 38.9322 46.7362C38.6604 46.4643 38.4225 46.1585 38.1733 45.864C38.1167 45.898 38.0714 45.9206 38.0147 45.9546C38.06 46.7135 38.1167 47.4611 38.162 48.2201C38.2639 49.8399 38.3545 50.2816 36.3043 50.2703C24.9657 50.2363 13.6272 50.259 2.27725 50.259C1.20116 50.259 0.917974 49.9984 0.97461 48.9224C1.13319 46.1019 1.32576 43.2814 1.50699 40.4496C1.63159 38.5353 1.71089 36.621 1.89212 34.7067C2.23194 31.1272 4.14624 28.6919 7.4538 27.3553C9.7419 26.4264 12.064 25.5542 14.3747 24.6934C14.7825 24.5461 15.0091 24.3649 14.9185 23.9118C14.9185 23.8778 14.9185 23.8325 14.9185 23.7985C15.0317 23.0056 14.7825 22.4053 14.1595 21.8276C13.6045 21.3178 13.242 20.5929 12.8456 19.9359C12.687 19.6754 12.5737 19.5281 12.2452 19.5395C10.7047 19.5848 9.53801 18.9165 8.8244 17.5685C8.09945 16.1979 8.25803 14.85 9.15289 13.57C9.27749 13.4001 9.3228 13.1396 9.3228 12.9244C9.33412 11.3499 9.3228 9.78671 9.3228 8.21222C9.33412 4.24769 12.3812 0.588983 16.3117 0.158548C18.5998 -0.0906518 20.9559 -0.011361 23.2666 0.158548C24.7732 0.260493 25.8493 1.29127 26.6195 2.59391C26.7554 2.82045 26.9707 3.047 27.1972 3.18292C28.8736 4.19105 29.7798 5.64094 29.8025 7.62321C29.8138 9.39026 29.8025 11.146 29.8025 12.913C29.8025 13.1169 29.8138 13.3661 29.9271 13.5134C30.8899 14.8047 30.9692 16.1753 30.2556 17.6931C32.7476 17.6252 35.0696 18.1689 37.2105 19.2789C37.505 18.7919 37.7882 18.3388 38.0374 17.8744C38.128 17.7158 38.162 17.5119 38.162 17.3307C38.162 16.1639 38.162 15.0086 38.162 13.8419C38.1733 9.87733 41.5035 6.53579 45.4567 6.52446C46.7027 6.52446 47.9374 6.52446 49.1834 6.52446C51.1317 6.54712 52.5702 7.44197 53.5784 9.08442C53.7256 9.33362 53.9635 9.56016 54.2014 9.70742C55.8551 10.7155 56.7387 12.1541 56.7727 14.1024C56.7727 14.7594 56.7727 15.4164 56.7727 16.0847C56.7727 16.9455 56.8293 17.7158 57.305 18.5427C58.5397 20.6948 56.9086 23.2775 54.3939 23.2548C53.8842 23.2548 53.703 23.4247 53.4764 23.8665C53.0347 24.6934 52.5363 25.5542 51.8566 26.1659C51.1883 26.7549 51.0977 27.3439 51.2336 28.1142L51.2563 28.1029ZM42.8288 31.6936C42.9194 25.1691 37.505 19.6527 30.9012 19.5508C24.2861 19.4375 18.7018 24.8746 18.6338 31.4784C18.5658 38.1388 23.9123 43.6439 30.5614 43.7458C37.2445 43.8477 42.7382 38.456 42.8288 31.7049V31.6936ZM2.90025 48.356H7.47646V38.1954H9.34545V48.356H17.1613C17.1613 48.356 17.2179 48.2767 17.2405 48.2314C16.9234 47.9482 16.6175 47.665 16.2891 47.3932C15.8699 47.042 15.7793 46.6003 15.8699 46.0905C16.3797 43.1002 16.8101 40.0871 17.3878 37.108C17.671 35.6468 16.9913 34.7293 16.0738 33.8005C15.9492 33.8911 15.8586 33.9477 15.768 34.0157C14.8505 34.7067 14.3068 34.5481 13.8763 33.472C13.5139 32.5771 13.1627 31.671 12.8003 30.7761C12.4038 29.7793 11.996 28.7825 11.5769 27.7517C10.195 28.2954 8.8244 28.7259 7.54442 29.3489C5.17702 30.4929 3.89705 32.4412 3.71581 35.0918C3.53458 37.8783 3.34201 40.6648 3.1721 43.44C3.07015 45.0598 2.97954 46.6796 2.88892 48.3333L2.90025 48.356ZM12.064 12.0748C12.3245 11.3159 12.5284 11.1686 13.3326 11.1686C13.8537 11.1686 14.3748 11.1686 14.9071 11.1686C18.192 11.1686 21.0465 10.0925 23.4479 7.83842C23.6858 7.61188 24.0935 7.46462 24.422 7.46462C25.7586 7.46462 26.9707 8.68796 27.0046 10.0359C27.0273 10.7042 27.0046 11.3839 27.0046 12.0635C27.3445 12.1088 27.6163 12.1428 27.9335 12.1881C27.9335 10.5683 27.9901 8.98247 27.9108 7.39666C27.8542 6.13933 27.1745 5.2105 25.9965 4.7121C25.5547 4.51954 25.2829 4.25901 25.0903 3.80592C24.5579 2.55992 23.5725 1.91427 22.2359 1.86896C20.684 1.82365 19.1322 1.82365 17.5804 1.86896C14.488 1.97091 11.9734 3.98716 11.3844 7.01153C11.1238 8.34815 11.2371 9.75273 11.1918 11.1233C11.1805 11.4745 11.1918 11.8369 11.1918 12.1994C11.5316 12.1541 11.7695 12.1201 12.0753 12.0748H12.064ZM14.0009 13.1169C14.0009 14.4422 13.9217 15.7788 14.0123 17.1154C14.2162 20.1172 16.6629 22.36 19.574 22.3373C20.0724 22.3373 20.4575 22.1674 20.8653 21.8276C21.8168 21.012 22.7909 20.1965 23.8557 19.5508C24.558 19.1317 24.8864 18.6106 25.011 17.8857C25.0903 17.4099 25.1356 16.9229 25.1356 16.4471C25.147 14.5102 25.1356 12.5732 25.1356 10.6363C25.1356 10.4437 25.1356 10.2398 25.1017 10.0586C24.9431 9.44689 24.6146 9.34495 24.1388 9.7414C22.2472 11.3612 20.0837 12.4486 17.6143 12.8224C16.4363 13.0036 15.2356 13.0263 13.9896 13.1282L14.0009 13.1169ZM40.8918 16.7303C41.209 15.9261 41.3676 15.8128 42.2738 15.8128C42.9308 15.8128 43.5877 15.8128 44.256 15.8128C46.6234 15.8128 48.685 15.0312 50.4294 13.4114C50.6786 13.1849 51.109 13.0376 51.4602 13.0376C52.7628 13.0603 53.9408 14.2836 53.9861 15.6089C53.9975 15.9714 53.9861 16.3339 53.9861 16.7077H54.915C54.915 15.7675 54.9716 14.85 54.9036 13.9438C54.813 12.6638 54.1674 11.7123 52.9667 11.2026C52.5136 11.0101 52.2531 10.7382 52.0718 10.2964C51.5395 9.05044 50.5427 8.41611 49.206 8.3708C47.9827 8.32549 46.7594 8.33682 45.5473 8.3708C42.9194 8.45009 40.7106 10.1832 40.2235 12.7205C39.9743 14.0118 40.0536 15.371 39.9743 16.719H40.8918V16.7303ZM42.8515 17.7837C42.8515 19.0864 42.7382 20.457 42.8741 21.7936C43.1573 24.6367 45.57 26.4151 48.3565 25.9507C50.4747 25.5882 52.0832 23.6966 52.1285 21.4198C52.1625 19.6188 52.1285 17.8177 52.1285 16.0167C52.1285 15.8468 52.1058 15.6656 52.0379 15.507C51.834 14.9746 51.5961 14.9066 51.1543 15.2691C49.8857 16.3225 48.4471 17.1041 46.8273 17.3986C45.5473 17.6365 44.2221 17.6591 42.8401 17.7837H42.8515ZM42.387 45.6261C42.387 45.6261 42.387 45.6714 42.421 45.6941C45.6266 48.8997 48.8322 52.1166 52.0379 55.3109C52.4343 55.7074 52.944 55.8999 53.5217 55.7753C54.1787 55.6281 54.6205 55.2543 54.8244 54.5973C55.0509 53.8837 54.7904 53.306 54.292 52.8076C51.1657 49.6813 48.0393 46.555 44.913 43.44C44.8337 43.3607 44.7431 43.304 44.7205 43.304C43.9162 44.097 43.146 44.8559 42.3644 45.6261H42.387ZM56.7727 39.9852C56.7727 38.0142 56.8293 36.0999 56.75 34.1856C56.682 32.5545 55.5833 31.2518 54.1107 30.7874C53.8162 30.6968 53.669 30.7421 53.4764 30.98C52.7175 31.9541 51.9586 32.9396 51.143 33.8684C50.9051 34.1403 50.486 34.3442 50.1349 34.3895C49.6251 34.4575 49.376 34.5934 49.4552 35.1031C49.6818 36.7229 49.9197 38.3427 50.1575 39.9738H53.0686V37.2666H54.9376V39.9852H56.7613H56.7727ZM22.7569 43.2474C22.9155 44.1649 23.0627 45.1051 23.2327 46.0566C23.3233 46.5663 23.2553 47.008 22.8362 47.3705C22.5077 47.6537 22.2019 47.9595 21.7941 48.3447H29.7572V45.6828C28.5338 45.3883 27.3218 45.207 26.1777 44.8106C25.0224 44.4141 23.935 43.8024 22.7569 43.2587V43.2474ZM19.5287 48.0388C20.1063 47.4498 20.5934 46.9741 21.0352 46.4643C21.1824 46.2944 21.273 45.9886 21.2504 45.7621C21.1371 44.8785 20.8992 44.0063 20.8426 43.1341C20.7407 41.5936 20.0724 40.359 18.9736 39.3168C18.951 39.3508 18.9056 39.4075 18.8943 39.4528C18.5318 41.605 18.1694 43.7571 17.8182 45.9093C17.7956 46.0566 17.8635 46.2605 17.9655 46.3737C18.4526 46.9174 18.9623 47.4385 19.5287 48.0388ZM35.9871 44.686C34.4919 45.0258 33.0874 45.3429 31.6828 45.6601V48.3447H36.225C36.1457 47.0987 36.0664 45.8867 35.9985 44.6973L35.9871 44.686ZM39.9517 45.0598C41.3676 43.6439 42.7608 42.2506 44.0975 40.9027C43.5877 40.3703 43.0327 39.7813 42.455 39.1696C41.3449 40.8687 39.9404 42.2506 38.2866 43.3607C38.8869 43.9723 39.442 44.5274 39.963 45.0598H39.9517ZM13.344 27.0608C14.001 28.7145 14.6353 30.3004 15.2923 31.9315C15.7 31.6143 16.0625 31.3311 16.425 31.0366C16.7308 30.7988 17.2292 28.488 17.0593 28.1482C17.0367 28.1029 16.9913 28.0576 16.9574 28.0123C16.5496 27.5025 16.1531 26.9701 15.7114 26.4831C15.6207 26.3811 15.3829 26.3018 15.247 26.3471C14.624 26.551 14.0236 26.8002 13.344 27.0494V27.0608ZM44.9017 38.943C44.981 38.4786 45.0376 38.1615 45.0829 37.8443C45.2188 36.9041 45.3888 35.9753 45.4681 35.0351C45.4907 34.8086 45.2188 34.4008 45.0376 34.3668C44.7884 34.3215 44.3806 34.2649 44.2787 34.8199C44.1428 35.5675 43.8029 36.2811 43.5877 37.0174C43.5424 37.1873 43.5311 37.4478 43.6217 37.5611C43.9842 38.0029 44.4033 38.4107 44.9017 38.9317V38.943ZM12.0753 13.9438C10.9199 14.1024 10.229 14.8273 10.2403 15.8015C10.2516 16.7869 10.9879 17.5119 12.0753 17.6138V13.9438ZM27.0046 17.6252C28.126 17.4892 28.8397 16.753 28.8397 15.7902C28.8397 14.816 28.1034 14.0684 27.0046 13.9665V17.6365V17.6252ZM53.9975 21.3518C55.1302 21.3971 55.8665 20.8081 55.8212 19.9246C55.7758 19.0524 55.0396 18.5087 53.9975 18.622V21.3405V21.3518ZM49.308 27.7744H45.5813C45.5247 28.7372 46.5781 28.7599 47.0652 29.2809C47.3597 29.5981 47.6655 29.4961 47.9034 29.2356C48.3792 28.7372 49.4439 28.7485 49.3193 27.7744H49.308ZM40.9032 18.5993C39.7818 18.5427 39.0342 19.143 39.0795 20.0152C39.1135 20.7175 40.0423 21.4085 40.9032 21.3405V18.6106V18.5993ZM47.5523 35.341C47.4843 35.341 47.4163 35.341 47.337 35.341C47.1218 36.8702 46.9066 38.3993 46.6801 39.9625H48.2092C47.9827 38.3993 47.7675 36.8702 47.5523 35.341ZM50.1689 32.0448C50.6786 31.3991 51.1657 30.7988 51.6301 30.2211C50.452 29.4735 49.7497 30.2664 49.0361 30.7988C49.4099 31.2179 49.7724 31.6143 50.1689 32.0448ZM16.7988 23.6966C16.425 24.818 17.2972 25.3503 17.8296 26.0979C18.192 25.4183 18.5092 24.818 18.8377 24.195C18.1354 24.0251 17.4671 23.8665 16.7988 23.7079V23.6966ZM47.4503 32.1014C47.1445 32.3959 46.8273 32.6904 46.5215 32.9849C47.0539 33.6646 47.8468 33.6759 48.3792 32.9849C48.0733 32.6791 47.7562 32.3846 47.4616 32.0901L47.4503 32.1014ZM44.6865 32.0108C45.1169 31.5577 45.4794 31.1612 45.8645 30.7534C45.4681 30.4929 45.0376 30.2097 44.5845 29.9152C44.6185 30.6402 44.6525 31.2858 44.6865 32.0108Z" fill="#335EA9"/>
<path d="M27.9335 37.2666C28.0581 35.7374 27.639 34.3894 26.7668 33.1208C25.6794 31.5123 25.8493 29.3262 27.0613 27.8083C28.3186 26.2452 30.4028 25.6448 32.2831 26.3018C34.1068 26.9474 35.3528 28.7032 35.3755 30.6515C35.3755 31.6369 35.1263 32.5318 34.5599 33.3247C33.8123 34.3668 33.4725 35.5335 33.5178 36.8135C33.5291 37.2779 33.5178 37.7423 33.5178 38.2067C33.4952 39.7359 32.2718 40.9479 30.7313 40.9479C29.1908 40.9479 27.9561 39.7472 27.9448 38.2067C27.9448 37.9009 27.9448 37.5837 27.9448 37.2779L27.9335 37.2666ZM31.7281 35.3183C31.9207 34.1063 32.453 33.0981 33.0874 32.1127C33.8463 30.9233 33.5744 29.4621 32.5097 28.5559C31.4902 27.695 29.9497 27.695 28.9416 28.5786C27.8768 29.5074 27.6276 30.946 28.3979 32.1353C29.0322 33.1208 29.5533 34.1402 29.7458 35.3183H31.7394H31.7281ZM29.8138 37.2326C29.8138 37.8669 29.6212 38.5352 30.2669 38.8864C30.5161 39.0223 30.9805 39.011 31.2184 38.875C31.8527 38.5012 31.6375 37.8443 31.6488 37.2326H29.8138Z" fill="#335EA9"/>
<path d="M35.2966 27.3099C34.9001 26.9361 34.4697 26.517 34.0732 26.1545C34.7302 25.4976 35.3645 24.8519 36.0215 24.1836C36.4067 24.5914 36.8258 25.0218 37.1996 25.4069C36.5766 26.0299 35.9309 26.6643 35.2966 27.3099Z" fill="#335EA9"/>
<path d="M37.233 36.0205C36.8478 36.4056 36.4287 36.8134 36.0436 37.1872C35.3979 36.5416 34.741 35.8959 34.084 35.2276C34.4578 34.8538 34.8769 34.4347 35.2733 34.0496C35.9303 34.7065 36.576 35.3522 37.2443 36.0205H37.233Z" fill="#335EA9"/>
<path d="M27.3441 26.1545C26.9703 26.5283 26.5399 26.9474 26.1434 27.3325C25.5091 26.6982 24.8748 26.0525 24.2178 25.3956C24.6256 25.0218 25.0673 24.6253 25.4638 24.2742C26.0415 24.8519 26.6758 25.4862 27.3441 26.1545Z" fill="#335EA9"/>
<path d="M25.4073 37.1873C25.0109 36.8022 24.6031 36.4057 24.252 36.0659C24.9089 35.4089 25.5659 34.7633 26.2229 34.095C26.5627 34.4348 26.9705 34.8652 27.3443 35.2504C26.6986 35.8847 26.053 36.5417 25.396 37.1873H25.4073Z" fill="#335EA9"/>
<path d="M39.0799 29.8132V31.6029H36.3613V29.8132H39.0799Z" fill="#335EA9"/>
<path d="M31.6153 25.0898H29.8369V22.3486H31.6153V25.0898Z" fill="#335EA9"/>
<path d="M22.3828 31.5917V29.802H25.1014V31.5917H22.3828Z" fill="#335EA9"/>
</svg>
