<svg width="54" height="60" viewBox="0 0 54 60" fill="none" xmlns="http://www.w3.org/2000/svg">
<path d="M44.9137 59.9833C42.6918 59.9833 40.4699 59.9833 38.248 59.9833C37.0786 59.9833 36.6777 59.5991 36.661 58.4297C36.6443 56.1076 36.6443 53.7687 36.661 51.4466C36.661 50.2104 37.0619 49.8429 38.2814 49.8094C38.4485 49.8094 38.6323 49.8094 38.7993 49.8094C39.8017 49.9097 40.4198 49.7593 40.8875 48.5899C41.6059 46.8024 43.2765 46.1676 45.1643 46.2511C46.9685 46.3346 48.3885 47.1031 49.0734 48.8572C49.3574 49.5756 49.6748 49.8596 50.4767 49.8429C53.1329 49.7927 53.1329 49.8429 53.1329 52.4824C53.1329 54.3869 53.1329 56.308 53.1329 58.2125C53.1329 59.6993 52.8322 59.9833 51.3788 60C49.2238 60 47.0687 60 44.9137 60V59.9833ZM38.8996 57.6612H50.9111V52.1149H38.8996V57.6612ZM42.792 49.6925H47.052C45.9661 47.9885 43.7442 48.0052 42.792 49.6925Z" fill="#335EA9"/>
<path d="M28.8043 51.9239C28.2796 51.5931 28.1085 51.114 28.1427 50.5094C28.1769 49.9505 28.1655 49.3915 28.1427 48.8326C28.1427 48.6843 28.0172 48.479 27.8918 48.422C27.1389 48.1026 26.3633 47.806 25.542 47.4866C25.0743 47.9657 24.5724 48.4904 24.0591 49.0037C23.4545 49.6083 22.9184 49.5969 22.3138 48.9923C21.2986 47.9771 20.272 46.9619 19.2682 45.9467C18.6637 45.3307 18.6637 44.8174 19.2682 44.2014C19.7587 43.7109 20.2492 43.2204 20.7397 42.73C20.7625 42.7071 20.7739 42.6729 20.7625 42.6843C20.4545 41.8858 20.1579 41.1216 19.8271 40.3687C19.7701 40.2433 19.5648 40.1292 19.4165 40.1292C18.7777 40.1064 18.1275 40.1292 17.4887 40.1178C16.8157 40.1064 16.5534 39.8897 16.3367 39.2737C16.291 39.1596 16.1655 39.0341 16.0515 38.9999C13.7701 38.19 12.6294 36.6045 12.618 34.1862C12.618 32.5322 12.618 30.8783 12.618 29.2129C12.618 28.8707 12.5268 28.6767 12.2188 28.4828C8.31763 26.0988 6.33287 22.5969 6.2188 18.0456C6.18458 16.711 6.44691 15.3992 6.90318 14.1216C7.15413 13.4372 7.67885 13.1292 8.2606 13.3117C8.84235 13.5057 9.07049 14.076 8.84236 14.7718C7.234 19.7794 9.21878 24.6387 13.8956 27.0456C14.4659 27.3421 14.7169 27.7528 14.6941 28.3802C14.6713 28.8364 14.6941 29.2927 14.6941 29.7718H19.7929C19.5648 29.5323 19.3709 29.3497 19.1884 29.1444C18.6751 28.6083 18.6636 28.0608 19.1884 27.5361C20.2492 26.4638 21.31 25.403 22.3823 24.3421C22.9184 23.806 23.4659 23.8174 24.0248 24.365C24.3556 24.6844 24.6522 25.0266 24.9944 25.3802C26.6028 23.8745 27.5952 22.095 27.9944 19.9961C28.9982 14.7604 25.7245 9.67297 20.5344 8.44103C18.7093 8.00757 16.8842 8.07602 15.0933 8.68058C14.2378 8.96575 13.6446 8.78324 13.4393 8.15586C13.234 7.51708 13.5762 7.02659 14.4317 6.73001C21.367 4.3802 28.8157 8.85168 30.0476 16.1178C30.3556 17.9201 30.2187 19.6768 29.7511 21.4904C30.9488 21.4904 32.1009 21.4904 33.2644 21.4904C33.4469 21.4904 33.6408 21.4904 33.8233 21.4904C34.5419 21.4904 34.9184 21.8441 34.9526 22.5741C34.9754 23.2357 34.9754 23.8973 34.9526 24.5475C34.9526 24.8098 35.0324 24.9353 35.272 25.0266C36.0134 25.3003 36.7435 25.5969 37.5534 25.9163C38.0096 25.46 38.5115 24.9353 39.0248 24.4334C39.6636 23.806 40.1769 23.7946 40.8157 24.4334C41.8309 25.4486 42.8575 26.4638 43.8613 27.479C44.4431 28.0722 44.4545 28.6083 43.8727 29.1901C43.3594 29.7034 42.8461 30.2167 42.3442 30.7072C42.675 31.5285 42.9716 32.3269 43.3138 33.114C43.3594 33.2167 43.5762 33.2965 43.713 33.2965C44.3404 33.3193 44.9678 33.2965 45.5837 33.3079C46.4278 33.3307 46.7701 33.6843 46.7815 34.5284C46.7815 35.9999 46.7815 37.4714 46.7815 38.9429C46.7815 39.6957 46.4279 40.0722 45.675 40.095C44.9108 40.1178 44.1579 40.095 43.3822 40.095C43.2225 40.5512 43.0743 40.9733 42.9032 41.3954C42.7321 41.8174 42.5267 42.2166 42.31 42.6615C42.8233 43.1748 43.348 43.6767 43.8613 44.19C44.4659 44.806 44.4659 45.3307 43.8613 45.9353C42.8461 46.9505 41.8309 47.9657 40.8157 48.9809C40.1997 49.5855 39.675 49.5855 39.0704 48.9809C38.5571 48.4676 38.0438 47.9543 37.5647 47.4638C36.6864 47.8288 35.8423 48.171 34.9754 48.536C34.9754 49.1748 34.9526 49.825 34.9754 50.4866C34.9982 51.0912 34.8271 51.5702 34.3138 51.901H28.8385L28.8043 51.9239ZM21.2872 28.3916C21.7321 28.825 22.1998 29.2699 22.656 29.7148C23.215 30.2737 23.2036 30.6273 22.8614 31.3345C22.4051 32.2813 21.9716 33.2623 21.6294 34.2547C21.3214 35.1444 21.1275 35.3726 20.1693 35.3726C19.5648 35.3726 18.9716 35.3726 18.3899 35.3726V38.0303C19.0857 38.0303 19.7473 38.0303 20.4089 38.0303C21.0591 38.0303 21.4355 38.3269 21.5724 38.9429C21.8347 40.095 22.2796 41.1558 22.8956 42.1482C23.2606 42.7299 23.1921 43.1406 22.7016 43.6425C22.234 44.1102 21.7549 44.5665 21.2986 45.0113C21.9488 45.6615 22.5762 46.2775 23.2035 46.9049C23.1921 46.9049 23.2264 46.9049 23.2492 46.882C23.6598 46.4828 24.0591 46.0722 24.4697 45.6729C25.1313 45.0113 25.4279 45.0227 26.2492 45.4334C27.196 45.9011 28.1769 46.3003 29.1807 46.6425C29.9336 46.9049 30.2074 47.1558 30.2074 47.9771C30.2074 48.6159 30.2074 49.2432 30.2074 49.8706H32.8651C32.8651 49.1748 32.8651 48.5246 32.8651 47.863C32.8651 47.19 33.1845 46.8934 33.8119 46.6653C34.8728 46.2775 35.9108 45.8668 36.926 45.3877C37.6218 45.0684 37.964 45.0455 38.5115 45.5931C38.9678 46.0607 39.4127 46.5398 39.8005 46.9505C40.4849 46.2661 41.1008 45.6501 41.7282 45.0341C41.2948 44.6007 40.8727 44.1672 40.4393 43.7338C39.8575 43.1406 39.8689 42.8212 40.2225 42.0684C40.6902 41.0988 41.1009 40.1064 41.4545 39.0912C41.7168 38.3269 41.9678 38.0532 42.7777 38.0532C43.4165 38.0532 44.0438 38.0532 44.694 38.0532V35.3954C44.0096 35.3954 43.348 35.3954 42.6978 35.3954C42.0248 35.3954 41.7168 35.0874 41.4887 34.4714C41.1009 33.3992 40.6674 32.3497 40.1883 31.3117C39.8803 30.6615 39.8803 30.2965 40.4051 29.7718C40.8727 29.3041 41.3518 28.8593 41.7967 28.4372C41.1237 27.7642 40.5077 27.1482 39.8575 26.4866C39.4583 26.8973 39.059 27.3307 38.637 27.7414C37.9526 28.4258 37.6674 28.4144 36.8119 27.9923C35.8651 27.5247 34.8728 27.1368 33.8804 26.7946C33.1617 26.5437 32.8766 26.2699 32.8766 25.4942C32.8766 24.8555 32.8766 24.2167 32.8766 23.5665H30.2187C30.2187 24.2623 30.2187 24.9353 30.2187 25.6083C30.2187 26.2471 29.9222 26.6235 29.2948 26.7604C28.1655 27.0113 27.1161 27.4562 26.1351 28.0608C25.5191 28.4372 25.1199 28.3916 24.5952 27.8783C24.1275 27.4106 23.6826 26.9315 23.2378 26.4752C22.5762 27.1368 21.9602 27.7528 21.2986 28.4144L21.2872 28.3916ZM16.3252 36.9011C16.3252 36.057 16.3252 35.3041 16.3252 34.5399C16.3252 33.6957 16.6674 33.3307 17.5116 33.3193C18.1389 33.3079 18.7663 33.3193 19.3823 33.3079C19.5191 33.3079 19.7359 33.2281 19.7815 33.1254C19.964 32.7262 20.0895 32.2927 20.2492 31.8364H14.6941C14.6941 32.8859 14.6256 33.8897 14.7169 34.8707C14.8081 35.7946 15.3671 36.4676 16.3252 36.9011Z" fill="#335EA9"/>
<path d="M31.4499 9.87837C31.4499 9.03427 32.7959 8.2472 33.5259 8.65784C34.1077 8.98864 34.256 9.80993 33.7541 10.2434C33.4347 10.5172 33.024 10.7453 32.6134 10.8708C32.043 11.0533 31.4385 10.5057 31.4385 9.87837H31.4499Z" fill="#335EA9"/>
<path d="M19.2561 1.32319C19.2561 2.31559 18.7085 2.85171 17.9443 2.63498C17.5564 2.52091 17.2941 2.26996 17.2371 1.87072C17.1914 1.57414 17.18 1.26616 17.2028 0.96958C17.2598 0.365018 17.6705 0 18.2294 0C18.777 0 19.1876 0.399239 19.2561 0.980987C19.2675 1.09506 19.2561 1.22053 19.2561 1.3346V1.32319Z" fill="#335EA9"/>
<path d="M1.45035 19.1405C0.549211 19.1405 0.00171366 18.7299 0.127189 18.0227C0.184223 17.7147 0.446567 17.304 0.720331 17.19C1.27927 16.9618 1.91806 16.9276 2.44277 17.3497C2.76216 17.612 2.86483 17.9884 2.72794 18.3991C2.56825 18.9124 2.18041 19.1405 1.43897 19.1405H1.45035Z" fill="#335EA9"/>
<path d="M34.9755 19.1408C34.0743 19.1408 33.5952 18.7301 33.6637 18.0001C33.7207 17.2929 34.3937 16.9393 35.3861 17.0876C36.0591 17.1902 36.4355 17.6921 36.31 18.3423C36.2074 18.8784 35.7625 19.1522 34.9755 19.1522V19.1408Z" fill="#335EA9"/>
<path d="M10.1427 4.87082C9.33282 4.91645 8.95637 4.30048 8.6598 3.502C8.51151 3.09136 8.80808 2.56664 9.23014 2.37273C9.78907 2.11037 10.3024 2.34991 10.7016 3.04573C11.1351 3.78717 11.1009 4.3347 10.5648 4.68831C10.4051 4.79098 10.1997 4.8366 10.1427 4.85942V4.87082Z" fill="#335EA9"/>
<path d="M4.97543 9.673C4.98684 10.5969 4.3024 11.1103 3.6294 10.8365C3.31001 10.711 2.99063 10.5171 2.71687 10.3004C2.32904 9.99239 2.27199 9.44486 2.52294 9.02281C2.77389 8.60076 3.29861 8.40684 3.74348 8.61216C4.291 8.87452 4.92979 9.07984 4.96402 9.673H4.97543Z" fill="#335EA9"/>
<path d="M26.3747 4.95066C26.1351 4.81378 25.8614 4.69971 25.6789 4.5172C25.3024 4.14077 25.348 3.69591 25.7701 3.00009C26.1237 2.40694 26.4887 2.16739 26.9792 2.32709C27.2416 2.41834 27.4925 2.62367 27.6864 2.8404C28.1427 3.38792 27.2188 5.04191 26.3861 4.96207L26.3747 4.95066Z" fill="#335EA9"/>
<path d="M11.4652 10.346C11.4652 10.9391 11.0432 11.3612 10.45 11.3612C9.86826 11.3612 9.42338 10.9049 9.43478 10.3346C9.43478 9.79846 9.90247 9.34219 10.4386 9.33078C11.0089 9.31937 11.4652 9.76424 11.4652 10.346Z" fill="#335EA9"/>
<path d="M36.6173 36.7528C36.6173 39.5475 34.3245 41.7947 31.4956 41.7832C28.701 41.7832 26.4652 39.4791 26.4766 36.6502C26.4766 33.8783 28.7694 31.6426 31.5755 31.6426C34.3815 31.6426 36.6287 33.9239 36.6173 36.7528ZM34.5869 36.73C34.5869 35.0874 33.2067 33.6844 31.5641 33.673C29.9215 33.6616 28.5184 35.0532 28.507 36.6958C28.4956 38.3384 29.8873 39.7414 31.5299 39.7528C33.1724 39.7528 34.5755 38.3726 34.5869 36.73Z" fill="#335EA9"/>
<path d="M32.557 36.7185C32.557 37.3003 32.1007 37.7337 31.519 37.7223C30.9372 37.7223 30.5152 37.266 30.5266 36.6729C30.538 36.1139 30.9715 35.6919 31.5304 35.6919C32.1121 35.6919 32.557 36.1254 32.5456 36.7071L32.557 36.7185Z" fill="#335EA9"/>
</svg>
