<svg width="52" height="54" viewBox="0 0 52 54" fill="none" xmlns="http://www.w3.org/2000/svg">
<path d="M25.1752 53.1818C23.835 52.7138 22.8848 51.7967 21.9961 50.7024C15.2006 42.3303 8.36729 33.9867 1.54108 25.6383C-0.602742 23.017 -0.52002 21.0906 1.85308 18.7152C3.88581 16.6824 5.93037 14.6615 7.94656 12.6122C9.55383 10.979 11.5109 10.1895 13.7729 10.1848C21.9252 10.1682 30.0797 10.1682 38.2319 10.1848C40.4916 10.1895 42.4487 10.9813 44.0583 12.6122C46.188 14.7702 48.3507 16.8952 50.4851 19.0508C52.3689 20.9535 52.5131 23.0879 50.8207 25.1703C43.6967 33.9347 36.5679 42.6967 29.3801 51.4091C28.7466 52.1773 27.6877 52.598 26.8274 53.1795H25.1728L25.1752 53.1818ZM1.81054 22.9035C1.72544 23.0005 1.64271 23.095 1.55762 23.1919C8.81638 32.0934 16.0728 40.9972 23.3315 49.8987C23.4403 49.5891 23.3977 49.3716 23.3244 49.1636C21.9346 45.2022 20.5472 41.2407 19.1502 37.2816C17.8597 33.6179 16.5384 29.9661 15.2999 26.2836C15.1746 25.9101 15.5362 25.3759 15.6733 24.915C16.0184 25.2057 16.3895 25.4705 16.6968 25.799C16.8433 25.9574 16.867 26.2316 16.945 26.4537C19.7931 34.5185 22.639 42.5833 25.4895 50.648C25.6077 50.9813 25.7732 51.2956 26.0544 51.9267C29.5432 42.042 32.9137 32.4976 36.2985 22.9059H1.81054V22.9035ZM41.5245 12.721C37.147 25.1254 32.7885 37.4731 28.4323 49.8184C28.5079 49.8515 28.5859 49.8822 28.6615 49.9153C35.925 41.0067 43.1861 32.0958 50.4496 23.1872C50.3645 23.0643 50.2818 22.9414 50.1967 22.8185C49.7783 22.8185 49.36 22.8185 48.9416 22.8185C46.5 22.8185 44.056 22.8445 41.6143 22.783C41.2574 22.7735 40.91 22.3386 40.5578 22.0999C40.9123 21.8234 41.2361 21.3766 41.6285 21.3081C42.3541 21.1804 43.12 21.2703 43.8669 21.2703C45.928 21.2703 47.9891 21.2703 49.828 21.2703C47.1074 18.4693 44.3609 15.6424 41.5245 12.7186V12.721ZM34.9465 21.2183C31.9021 18.1644 28.9405 15.191 26.1254 12.3664C23.185 15.3021 20.2021 18.2803 17.2593 21.2183H34.9465ZM11.8206 11.9126C12.9244 15.0255 13.9384 17.8879 14.9004 20.6061C17.8573 17.6563 20.7835 14.7372 23.6128 11.9126H11.8206ZM28.3495 11.9055C31.2048 14.7608 34.1239 17.6823 37.0927 20.6534C38.0807 17.8524 39.097 14.9641 40.1772 11.9055H28.3519H28.3495ZM2.1249 21.2183H13.4751C12.4469 18.3133 11.4542 15.5101 10.4733 12.7351C7.60619 15.6472 4.84782 18.4504 2.1249 21.2183Z" fill="#335EA9"/>
<path d="M26.3589 0C26.5102 0.387638 26.7773 0.775276 26.7891 1.16764C26.8364 2.88837 26.8553 4.61383 26.7749 6.3322C26.756 6.72693 26.3093 7.10039 26.0611 7.48566C25.7727 7.10039 25.2598 6.7293 25.2385 6.32984C25.1464 4.61383 25.1724 2.88837 25.2196 1.16764C25.2314 0.775276 25.4985 0.390001 25.6498 0.00236364C25.8862 0.00236364 26.1225 0.00236364 26.3589 0.00236364V0Z" fill="#335EA9"/>
<path d="M33.4645 7.60846C33.2896 7.26573 32.8972 6.845 32.9894 6.62754C33.5283 5.34172 34.1547 4.09135 34.8189 2.86226C34.9134 2.68498 35.4145 2.57389 35.6343 2.66135C35.8471 2.74644 36.126 3.21444 36.0551 3.36808C35.4429 4.70117 34.7645 6.00591 34.0862 7.30827C34.0294 7.417 33.8191 7.443 33.4669 7.60846H33.4645Z" fill="#335EA9"/>
<path d="M19.1951 6.66802C18.9918 6.93748 18.8523 7.30857 18.6396 7.35821C18.3654 7.42202 17.8596 7.32275 17.7509 7.12893C17.1032 5.97784 16.5076 4.79129 15.9758 3.5811C15.8812 3.36365 16.0869 2.88619 16.2996 2.70419C16.4509 2.57655 17.0276 2.64273 17.1174 2.79637C17.8336 4.03728 18.4813 5.31602 19.1927 6.67039L19.1951 6.66802Z" fill="#335EA9"/>
</svg>
