<svg width="54" height="60" viewBox="0 0 54 60" fill="none" xmlns="http://www.w3.org/2000/svg">
<path d="M45.7478 59.9853C43.8 59.9853 41.8521 59.9853 39.9043 59.9853C38.8791 59.9853 38.5276 59.6485 38.5129 58.6233C38.4983 56.5876 38.4983 54.5372 38.5129 52.5015C38.5129 51.4177 38.8644 51.0955 39.9336 51.0662C40.08 51.0662 40.2411 51.0662 40.3876 51.0662C41.2663 51.1541 41.8082 51.0223 42.2182 49.9971C42.848 48.43 44.3126 47.8735 45.9675 47.9467C47.5492 48.02 48.7941 48.6937 49.3945 50.2314C49.6435 50.8612 49.9218 51.1102 50.6248 51.0955C52.9534 51.0516 52.9534 51.0955 52.9534 53.4095C52.9534 55.0791 52.9534 56.7633 52.9534 58.4329C52.9534 59.7364 52.6898 59.9853 51.4156 60C49.5264 60 47.6371 60 45.7478 60V59.9853ZM40.4754 57.9496H51.0055V53.0873H40.4754V57.9496ZM43.8878 50.9637H47.6224C46.6705 49.4699 44.7226 49.4845 43.8878 50.9637Z" fill="#335EA9"/>
<path d="M45.6809 38.4691C45.0007 38.9597 44.354 39.4169 43.7184 39.8629C44.6439 43.1968 43.2501 45.1481 40.1393 45.2261C39.5037 46.0735 39.0242 46.8875 38.3664 47.523C37.6751 48.2032 36.7162 48.3035 35.735 48.2701C35.4339 49.374 34.8206 50.2548 33.7391 50.6674C33.1927 50.8792 32.468 50.7231 31.9996 51.0242C31.5313 51.3141 31.3529 52.0388 30.9181 52.4291C29.8031 53.4549 28.1306 53.4438 26.9375 52.4625C26.5695 52.1615 26.235 51.8158 25.8448 51.459C25.6441 51.682 25.4434 51.905 25.2427 52.128C23.4698 54.0236 20.5484 53.4549 19.5895 51.0242C19.478 50.7343 19.4 50.5113 18.9986 50.4778C17.5156 50.3552 16.5456 49.5301 16.0103 48.1697C13.2786 48.2812 12.1524 47.1216 12.0075 44.0776C9.86663 43.2302 9.16417 41.3124 9.93353 39.3946C9.34257 39.0712 8.75161 38.7479 8.1049 38.4022C7.6143 39.2273 6.93413 39.205 6.16477 38.982C4.548 38.5249 2.92009 38.1123 1.29217 37.6663C0.377856 37.421 0.0767902 36.9304 0.322093 36.0384C1.89426 30.1623 3.45528 24.2861 5.02745 18.41C5.27276 17.4957 5.79682 17.2058 6.74459 17.4511C8.39481 17.886 10.0339 18.3208 11.6841 18.7668C12.866 19.0902 13.0779 19.4581 12.8102 20.64C12.7879 20.7404 12.7768 20.8519 12.7545 20.9634C15.8654 21.7105 18.6418 20.3836 21.63 19.5473C18.9763 18.5884 16.9915 16.9828 15.7539 14.5409C14.5162 12.099 14.2932 9.5568 15.1295 6.93652C16.5121 2.62142 20.6377 -0.210717 25.2204 0.0122857C29.6693 0.224138 33.5272 3.55803 34.4304 8.06269C35.2889 12.322 33.2819 17.0943 28.3424 19.2909C29.7473 19.5585 31.0853 19.7926 32.4122 20.0602C33.8506 20.3501 35.2666 20.7738 36.7162 20.9299C38.0988 21.086 39.5148 20.9634 40.9867 20.9634C40.9309 20.6623 40.8975 20.5062 40.864 20.339C40.7191 19.4693 40.9867 19.0456 41.8564 18.8226C43.5623 18.3654 45.2795 17.9083 46.9854 17.4623C48.0001 17.1947 48.4907 17.4846 48.7583 18.4992C50.2859 24.3196 51.8246 30.14 53.3522 35.9603C53.6198 36.9638 53.3522 37.3987 52.3375 37.6775C50.7319 38.1123 49.1263 38.5137 47.5206 38.9597C46.7847 39.1604 46.1157 39.2273 45.6363 38.4468L45.6809 38.4691ZM23.7708 46.3188C24.7632 46.6199 25.5883 47.1662 25.9897 48.1028C26.5138 49.3071 27.5953 49.9315 28.4874 50.7566C28.6546 50.9127 29.279 50.8569 29.4351 50.6785C29.6247 50.4555 29.5912 49.9984 29.5578 49.6416C29.5466 49.4855 29.3125 49.3517 29.1787 49.2179C28.019 48.0805 26.8371 46.9655 25.6998 45.8059C25.4545 45.5606 25.2315 45.1146 25.2761 44.8024C25.3319 44.4679 25.6441 44.0776 25.9563 43.8881C26.38 43.6205 26.826 43.8212 27.1828 44.1668C28.5319 45.4826 29.8811 46.7983 31.2414 48.1028C31.431 48.2812 31.6205 48.4596 31.8435 48.5823C32.3453 48.861 32.8136 48.7272 33.1927 48.3258C33.5607 47.9244 33.5941 47.4673 33.3154 47.0101C33.1927 46.8094 33.0143 46.6422 32.8471 46.4749C31.4533 45.1146 30.0372 43.7766 28.6769 42.3717C28.3982 42.0818 28.164 41.5689 28.2198 41.1898C28.3313 40.2977 29.424 40.019 30.1264 40.688C31.1411 41.6358 32.1112 42.617 33.1035 43.587C33.806 44.2672 34.4861 44.9585 35.1997 45.6164C35.7015 46.0847 36.337 46.1293 36.8723 45.7948C37.4409 45.4491 37.6639 44.9027 37.4744 44.2895C37.3629 43.9215 37.073 43.5759 36.7831 43.3194C35.0102 41.7584 33.215 40.2308 31.431 38.681C30.762 38.1012 30.6616 37.4656 31.1188 36.9415C31.5983 36.384 32.1892 36.3952 32.8805 36.975C34.0178 37.9451 35.144 38.9263 36.2702 39.8963C37.3183 40.7995 38.3552 41.725 39.4256 42.6058C40.3288 43.3417 41.5553 42.9403 41.7449 41.8588C41.8675 41.1786 41.4773 40.7214 40.9755 40.32C36.4932 36.6405 32.0108 32.9609 27.5173 29.2926C26.2573 28.2667 25.1312 28.2221 23.782 29.1253C22.5666 29.9504 21.3847 30.8313 20.1136 31.5783C19.4446 31.9686 18.6641 32.2808 17.8947 32.3811C15.6535 32.6822 13.6242 30.809 13.8695 28.657C13.9587 27.8876 14.3155 27.1294 14.6946 26.427C15.2744 25.3454 15.9657 24.3307 16.5901 23.3384H12.052C10.9036 27.62 9.75512 31.9128 8.6178 36.1833C9.54326 36.6739 10.413 37.1423 11.3161 37.6217C11.4499 37.5214 11.6172 37.3876 11.7956 37.2649C13.5127 36.1053 15.8208 36.7074 16.6682 38.6029C16.8689 39.0601 17.1142 39.1158 17.5379 39.127C18.9874 39.127 20.2697 40.1305 20.66 41.5131C20.7492 41.8142 20.7715 42.1375 20.8272 42.4386C22.9346 43.0184 23.6928 44.0219 23.7374 46.3188H23.7708ZM41.6445 23.1934C40.9086 23.1934 40.2396 23.16 39.5706 23.1934C37.6862 23.3161 35.8242 23.2492 33.9732 22.7586C30.84 21.9335 27.6511 21.3425 24.3841 21.3091C23.3248 21.2979 22.3102 21.5544 21.4293 22.1453C19.0209 23.7509 17.3149 25.9475 16.1999 28.6012C15.988 29.1141 16.1553 29.5267 16.5901 29.8389C17.2257 30.2961 18.0843 30.2961 18.8425 29.7943C20.0355 29.0026 21.2063 28.1998 22.3882 27.397C24.7744 25.7691 26.9263 25.8806 29.1452 27.6981C33.2819 31.11 37.4409 34.5108 41.5888 37.9228C41.901 38.1792 42.124 38.2461 42.4808 37.9785C43.1832 37.4322 43.908 36.9304 44.6439 36.4398C44.945 36.2391 45.0119 36.0607 44.9227 35.7039C43.8188 31.5337 42.7261 27.3636 41.6334 23.1934H41.6445ZM16.9135 10.0028C16.9024 14.2399 20.3366 17.7076 24.6071 17.7633C28.833 17.8191 32.3899 14.2956 32.4011 10.0251C32.4122 5.77691 28.8888 2.24231 24.6294 2.26461C20.3812 2.28691 16.9247 5.74346 16.9024 10.0028H16.9135ZM6.20937 36.674C7.63658 31.3553 9.03035 26.1148 10.4576 20.8073C9.2868 20.4839 8.1718 20.1829 6.98989 19.8707C5.57382 25.167 4.15774 30.4299 2.74167 35.7262C3.92359 36.0495 5.02745 36.3506 6.20937 36.674ZM43.3505 20.7961C44.7554 26.1482 46.138 31.4111 47.5206 36.674C48.5465 36.4063 49.4496 36.1276 50.3751 35.9269C50.8991 35.8154 50.966 35.6258 50.8322 35.1352C49.9625 31.8905 49.1263 28.6347 48.2677 25.3789C47.7882 23.5502 47.2976 21.7216 46.807 19.8707C45.6363 20.1829 44.5213 20.4839 43.3393 20.785L43.3505 20.7961ZM18.7198 42.3717C18.4411 42.0595 18.2292 41.6915 17.9059 41.4797C17.471 41.2009 17.025 41.3682 16.6905 41.7361C15.988 42.4943 15.2967 43.2637 14.6166 44.0442C14.126 44.6017 14.1371 45.2707 14.6389 45.7056C15.1072 46.107 15.7539 46.0401 16.2445 45.516C16.9135 44.7912 17.5825 44.0553 18.2181 43.2971C18.4076 43.0741 18.4968 42.7842 18.7198 42.3828V42.3717ZM19.0989 48.3147C19.4223 48.2143 19.6564 48.2032 19.7791 48.0805C20.3589 47.4784 20.9499 46.8763 21.4405 46.1962C21.7527 45.7613 21.5297 45.2707 21.1171 44.9473C20.6934 44.6128 20.2028 44.5794 19.8126 44.9473C19.2773 45.4491 18.7533 45.9843 18.3519 46.5864C18.1735 46.8429 18.1735 47.3558 18.3184 47.6568C18.4522 47.9467 18.8648 48.114 19.1101 48.3035L19.0989 48.3147ZM14.8061 39.7848C14.6946 39.6399 14.5274 39.2162 14.2375 39.1047C13.9141 38.982 13.4012 39.0155 13.1002 39.1939C12.6876 39.4392 12.3085 39.8517 12.1078 40.2754C11.9517 40.6099 11.9628 41.1452 12.1301 41.4685C12.275 41.7361 12.7657 41.9257 13.1002 41.9368C13.7357 41.9368 14.8061 40.6768 14.8061 39.7848ZM24.15 49.5858C24.1388 49.0395 23.559 48.4819 23.0015 48.4819C22.4105 48.4819 21.6523 49.2959 21.6523 49.9092C21.6523 50.4778 22.1987 51.0019 22.7896 51.0019C23.4029 51.0019 24.1611 50.2102 24.1388 49.5858H24.15Z" fill="#335EA9"/>
<path d="M28.0074 12.2329C27.9182 13.4483 27.4499 14.4295 26.3795 15.0316C25.9224 15.2881 25.7328 15.5668 25.7663 16.0797C25.7997 16.6038 25.6102 17.1278 25.0527 17.2505C24.707 17.3285 24.1941 17.2728 23.9376 17.0609C23.67 16.8379 23.5474 16.3585 23.5251 15.9794C23.5028 15.5334 23.3578 15.3215 22.9787 15.0762C22.5216 14.7863 22.109 14.3737 21.7857 13.9277C21.4177 13.4371 21.5961 12.7681 22.0644 12.4336C22.5662 12.0768 23.1237 12.1549 23.5697 12.6343C23.7035 12.7793 23.8038 13.0134 23.9599 13.0469C24.3502 13.1361 24.8073 13.2476 25.1642 13.1361C25.6436 12.98 25.8443 12.4559 25.6548 12.0099C25.5098 11.6643 25.1418 11.3632 24.7962 11.1848C24.4728 11.0176 24.0268 11.0956 23.6589 10.973C22.2763 10.5046 21.4623 9.53458 21.3174 8.08507C21.1836 6.74705 21.7411 5.65434 22.9007 4.97418C23.369 4.70657 23.5362 4.42782 23.5028 3.92606C23.4693 3.42431 23.6589 2.92255 24.1606 2.7776C24.5063 2.67725 25.0415 2.69955 25.2868 2.9114C25.5656 3.14555 25.6994 3.64731 25.744 4.03757C25.7886 4.43897 25.8889 4.65082 26.2346 4.89613C26.7475 5.26408 27.2046 5.74354 27.5726 6.25644C27.9405 6.79165 27.7287 7.47181 27.2269 7.78401C26.7029 8.10737 26.0673 7.92896 25.6436 7.38261C25.4429 7.12615 25.1753 6.8474 24.8854 6.74705C24.2833 6.54635 23.67 6.9589 23.5697 7.54986C23.4582 8.21887 23.8373 8.77637 24.5174 8.83213C25.376 8.91018 26.1788 9.12203 26.8367 9.71299C27.5837 10.382 27.9294 11.2406 27.9851 12.2218L28.0074 12.2329Z" fill="#335EA9"/>
</svg>
