<svg width="51" height="51" viewBox="0 0 51 51" fill="none" xmlns="http://www.w3.org/2000/svg">
<path d="M50.907 3.64187C50.8192 13.2766 47.5601 21.6129 40.6029 28.4018C39.0556 29.9125 37.2998 31.1598 35.5148 32.3633C35.2112 32.5681 35.0832 32.7583 35.1381 33.1607C35.3209 34.5287 35.5185 35.9004 35.566 37.2794C35.6648 40.1947 34.6881 42.7698 32.8921 45.0487C31.4839 46.8374 30.0719 48.6224 28.66 50.4074C28.0674 51.1573 27.5809 51.1317 27.0835 50.3196C25.3679 47.5141 23.6597 44.7048 21.9296 41.9103C21.7723 41.6542 21.487 41.4091 21.209 41.3031C15.6417 39.1742 11.8047 35.3261 9.67945 29.7589C9.57703 29.4919 9.34658 29.2248 9.10516 29.0749C6.29594 27.3337 3.46842 25.6182 0.648224 23.8917C-0.116266 23.4235 -0.160165 22.9187 0.523853 22.3774C2.44788 20.8594 4.35362 19.3157 6.30691 17.8343C9.08687 15.7201 12.2436 15.0544 15.671 15.5591C16.3953 15.6652 17.1341 15.7164 17.8511 15.8554C18.2388 15.9286 18.4071 15.7713 18.6119 15.4933C19.6251 14.1106 20.5835 12.6767 21.7028 11.3855C25.4374 7.07659 30.0463 4.01497 35.3978 2.07266C40.1017 0.368099 44.9594 -0.239104 49.945 0.0827861C50.6254 0.12668 50.8814 0.371756 50.9034 1.07406C50.929 1.93 50.9107 2.78959 50.9107 3.64553L50.907 3.64187ZM35.5953 3.5175C34.4248 4.05155 33.2652 4.53073 32.1459 5.09769C27.8772 7.26314 24.223 10.2004 21.4175 14.085C17.9645 18.8658 14.6358 23.7344 11.2413 28.5591C11.0328 28.8554 11.0255 29.0858 11.1499 29.4114C13.0922 34.4007 16.5452 37.8683 21.5309 39.8216C21.893 39.9643 22.1454 39.957 22.4746 39.7229C26.6372 36.7856 30.7633 33.8008 34.9917 30.966C40.1273 27.5166 44.0193 23.0577 46.5725 17.4246C46.8797 16.7479 47.1431 16.0566 47.4211 15.3799C41.3125 13.5729 37.4132 9.67 35.5916 3.5175H35.5953ZM37.0767 3.07125C38.4265 9.06646 43.6096 13.1267 47.9332 13.8619C49.2061 9.86021 49.6707 5.75976 49.4329 1.55324C45.2081 1.31914 41.1077 1.78003 37.0767 3.07125ZM33.6493 33.6874C30.1414 36.1455 26.6555 38.5889 23.1549 41.0433C24.7681 43.6807 26.3482 46.2668 27.9504 48.8894C28.104 48.7102 28.2211 48.5822 28.3271 48.4468C29.4428 47.0312 30.5401 45.601 31.6777 44.2074C34.2272 41.0799 34.5382 37.5355 33.6493 33.6838V33.6874ZM17.3499 17.2856C16.655 17.1905 16.0514 17.121 15.4479 17.0259C12.6167 16.5797 9.97939 17.0808 7.61277 18.7232C6.49346 19.4986 5.45097 20.3838 4.37556 21.2251C3.62571 21.8141 2.8795 22.4103 2.08941 23.0358C4.74135 24.6562 7.33111 26.24 9.95012 27.8385C12.4082 24.3306 14.8443 20.8557 17.3463 17.282L17.3499 17.2856Z" fill="#335EA9"/>
<path d="M8.99949 42.7733C8.82757 43.055 8.73978 43.2891 8.57884 43.45C6.32195 45.7215 4.0614 47.9821 1.79353 50.2426C1.41312 50.623 0.941257 50.6377 0.637656 50.3121C0.356002 50.0085 0.396237 49.5623 0.762021 49.1965C3.02257 46.9286 5.28677 44.6681 7.54732 42.4039C7.80703 42.1442 8.11429 41.9978 8.43984 42.1734C8.65565 42.2905 8.79465 42.5465 8.99949 42.777V42.7733Z" fill="#335EA9"/>
<path d="M8.07401 34.7701C7.90575 35.0591 7.82162 35.2969 7.65702 35.4578C5.56108 37.5684 3.45415 39.6716 1.34358 41.7712C0.937555 42.1773 0.520561 42.1809 0.195013 41.8261C-0.097615 41.5079 -0.0646957 41.0982 0.319378 40.7141C2.41898 38.6072 4.52956 36.5076 6.62916 34.397C6.89253 34.1337 7.20345 34.002 7.52168 34.1702C7.7375 34.2836 7.87649 34.547 8.07036 34.7665L8.07401 34.7701Z" fill="#335EA9"/>
<path d="M9.7854 50.9962C9.14528 50.9925 8.78316 50.4658 8.98435 50.0012C9.0575 49.833 9.18918 49.6793 9.32452 49.544C11.3619 47.4993 13.4067 45.4545 15.4478 43.4134C15.5465 43.3147 15.6563 43.1537 15.7623 43.1537C16.0659 43.1464 16.439 43.1098 16.6658 43.2598C16.9877 43.4756 16.9548 43.867 16.7353 44.1999C16.6768 44.2877 16.5963 44.3572 16.5232 44.434C14.4565 46.5007 12.3898 48.571 10.3158 50.6304C10.1402 50.806 9.90246 50.9193 9.78175 50.9998L9.7854 50.9962Z" fill="#335EA9"/>
<path d="M37.509 19.1806C37.5163 22.3337 34.9777 24.8722 31.81 24.8722C28.6643 24.8722 26.1257 22.3556 26.1221 19.2318C26.1184 16.0239 28.6387 13.478 31.8137 13.478C34.9704 13.478 37.5016 16.0166 37.509 19.1806ZM36.0202 19.2099C36.0275 16.8359 34.1876 14.9741 31.8247 14.9668C29.4873 14.9595 27.5998 16.8103 27.5852 19.1257C27.5742 21.496 29.4288 23.3944 31.7625 23.4054C34.1328 23.4127 36.0129 21.5655 36.0202 19.2135V19.2099Z" fill="#335EA9"/>
</svg>
